<svg width="34" height="36" viewBox="0 0 34 36" fill="none" xmlns="http://www.w3.org/2000/svg">
<mask id="mask0_1_3450" style="mask-type:luminance" maskUnits="userSpaceOnUse" x="0" y="0" width="34" height="37">
<path d="M33.7142 16.6869C33.7142 7.47393 26.2301 0.00390625 16.9999 0.00390625C7.76963 0.00390625 0.285583 7.47393 0.285583 16.6869C0.285583 21.7532 2.55081 26.2884 6.12239 29.3462L4.11668 32.8123V35.565C4.11668 35.8064 4.31461 36.004 4.55653 36.004C4.6379 36.004 4.71267 35.982 4.77865 35.9447L7.16484 34.5706L9.0276 31.3525C11.3962 32.6389 14.1123 33.3698 16.9999 33.3698C19.8875 33.3698 22.6036 32.6389 24.9744 31.3525L26.8371 34.5706L29.2233 35.9447C29.2893 35.9821 29.3641 36.004 29.4454 36.004C29.6873 36.004 29.8853 35.8064 29.8853 35.565V32.8123L27.8796 29.3462C31.4489 26.2884 33.7142 21.7532 33.7142 16.6869Z" fill="white"/>
</mask>
<g mask="url(#mask0_1_3450)">
<path d="M16.9999 33.3699C26.2309 33.3699 33.7142 25.9006 33.7142 16.6869C33.7142 7.47313 26.2309 0.00390625 16.9999 0.00390625C7.76883 0.00390625 0.285583 7.47313 0.285583 16.6869C0.285583 25.9006 7.76883 33.3699 16.9999 33.3699Z" fill="#45EF8A"/>
</g>
<mask id="mask1_1_3450" style="mask-type:luminance" maskUnits="userSpaceOnUse" x="0" y="0" width="34" height="37">
<path d="M33.7142 16.6869C33.7142 7.47393 26.2301 0.00390625 16.9999 0.00390625C7.76963 0.00390625 0.285583 7.47393 0.285583 16.6869C0.285583 21.7532 2.55081 26.2884 6.12239 29.3462L4.11668 32.8123V35.565C4.11668 35.8064 4.31461 36.004 4.55653 36.004C4.6379 36.004 4.71267 35.982 4.77865 35.9447L7.16484 34.5706L9.0276 31.3525C11.3962 32.6389 14.1123 33.3698 16.9999 33.3698C19.8875 33.3698 22.6036 32.6389 24.9744 31.3525L26.8371 34.5706L29.2233 35.9447C29.2893 35.9821 29.3641 36.004 29.4454 36.004C29.6873 36.004 29.8853 35.8064 29.8853 35.565V32.8123L27.8796 29.3462C31.4489 26.2884 33.7142 21.7532 33.7142 16.6869Z" fill="white"/>
</mask>
<g mask="url(#mask1_1_3450)">
<path d="M16.9998 33.1502C26.1575 33.1502 33.591 25.7987 33.7075 16.6868H33.7141C33.7141 25.8997 26.2301 33.3697 16.9998 33.3697C7.76957 33.3697 0.285522 25.8997 0.285522 16.6868H0.29212C0.40868 25.7987 7.84214 33.1502 16.9998 33.1502Z" fill="#263238" fill-opacity="0.2"/>
</g>
<mask id="mask2_1_3450" style="mask-type:luminance" maskUnits="userSpaceOnUse" x="0" y="0" width="34" height="37">
<path d="M33.7142 16.6869C33.7142 7.47393 26.2301 0.00390625 16.9999 0.00390625C7.76963 0.00390625 0.285583 7.47393 0.285583 16.6869C0.285583 21.7532 2.55081 26.2884 6.12239 29.3462L4.11668 32.8123V35.565C4.11668 35.8064 4.31461 36.004 4.55653 36.004C4.6379 36.004 4.71267 35.982 4.77865 35.9447L7.16484 34.5706L9.0276 31.3525C11.3962 32.6389 14.1123 33.3698 16.9999 33.3698C19.8875 33.3698 22.6036 32.6389 24.9744 31.3525L26.8371 34.5706L29.2233 35.9447C29.2893 35.9821 29.3641 36.004 29.4454 36.004C29.6873 36.004 29.8853 35.8064 29.8853 35.565V32.8123L27.8796 29.3462C31.4489 26.2884 33.7142 21.7532 33.7142 16.6869Z" fill="white"/>
</mask>
<g mask="url(#mask2_1_3450)">
<path d="M16.9999 0.00390625C7.76963 0.00390625 0.285583 7.47393 0.285583 16.6869H33.7142C33.7142 7.47393 26.2301 0.00390625 16.9999 0.00390625Z" fill="#3DDC84"/>
</g>
<mask id="mask3_1_3450" style="mask-type:luminance" maskUnits="userSpaceOnUse" x="0" y="0" width="34" height="37">
<path d="M33.7142 16.6869C33.7142 7.47393 26.2301 0.00390625 16.9999 0.00390625C7.76963 0.00390625 0.285583 7.47393 0.285583 16.6869C0.285583 21.7532 2.55081 26.2884 6.12239 29.3462L4.11668 32.8123V35.565C4.11668 35.8064 4.31461 36.004 4.55653 36.004C4.6379 36.004 4.71267 35.982 4.77865 35.9447L7.16484 34.5706L9.0276 31.3525C11.3962 32.6389 14.1123 33.3698 16.9999 33.3698C19.8875 33.3698 22.6036 32.6389 24.9744 31.3525L26.8371 34.5706L29.2233 35.9447C29.2893 35.9821 29.3641 36.004 29.4454 36.004C29.6873 36.004 29.8853 35.8064 29.8853 35.565V32.8123L27.8796 29.3462C31.4489 26.2884 33.7142 21.7532 33.7142 16.6869Z" fill="white"/>
</mask>
<g mask="url(#mask3_1_3450)">
<path d="M17.0003 16.2478C18.2149 16.2478 19.1995 15.265 19.1995 14.0527C19.1995 12.8403 18.2149 11.8575 17.0003 11.8575C15.7857 11.8575 14.801 12.8403 14.801 14.0527C14.801 15.265 15.7857 16.2478 17.0003 16.2478Z" fill="#3DDC84"/>
</g>
<mask id="mask4_1_3450" style="mask-type:luminance" maskUnits="userSpaceOnUse" x="0" y="0" width="34" height="37">
<path d="M33.7142 16.6869C33.7142 7.47393 26.2301 0.00390625 16.9999 0.00390625C7.76963 0.00390625 0.285583 7.47393 0.285583 16.6869C0.285583 21.7532 2.55081 26.2884 6.12239 29.3462L4.11668 32.8123V35.565C4.11668 35.8064 4.31461 36.004 4.55653 36.004C4.6379 36.004 4.71267 35.982 4.77865 35.9447L7.16484 34.5706L9.0276 31.3525C11.3962 32.6389 14.1123 33.3698 16.9999 33.3698C19.8875 33.3698 22.6036 32.6389 24.9744 31.3525L26.8371 34.5706L29.2233 35.9447C29.2893 35.9821 29.3641 36.004 29.4454 36.004C29.6873 36.004 29.8853 35.8064 29.8853 35.565V32.8123L27.8796 29.3462C31.4489 26.2884 33.7142 21.7532 33.7142 16.6869Z" fill="white"/>
</mask>
<g mask="url(#mask4_1_3450)">
<path d="M33.7141 16.6869H0.285522V16.4674H33.7141V16.6869Z" fill="#263238" fill-opacity="0.05"/>
</g>
<mask id="mask5_1_3450" style="mask-type:luminance" maskUnits="userSpaceOnUse" x="0" y="0" width="34" height="37">
<path d="M33.7142 16.6869C33.7142 7.47393 26.2301 0.00390625 16.9999 0.00390625C7.76963 0.00390625 0.285583 7.47393 0.285583 16.6869C0.285583 21.7532 2.55081 26.2884 6.12239 29.3462L4.11668 32.8123V35.565C4.11668 35.8064 4.31461 36.004 4.55653 36.004C4.6379 36.004 4.71267 35.982 4.77865 35.9447L7.16484 34.5706L9.0276 31.3525C11.3962 32.6389 14.1123 33.3698 16.9999 33.3698C19.8875 33.3698 22.6036 32.6389 24.9744 31.3525L26.8371 34.5706L29.2233 35.9447C29.2893 35.9821 29.3641 36.004 29.4454 36.004C29.6873 36.004 29.8853 35.8064 29.8853 35.565V32.8123L27.8796 29.3462C31.4489 26.2884 33.7142 21.7532 33.7142 16.6869Z" fill="white"/>
</mask>
<g mask="url(#mask5_1_3450)">
<path d="M33.7141 16.9063H0.285522V16.6868H33.7141V16.9063Z" fill="white" fill-opacity="0.05"/>
</g>
<mask id="mask6_1_3450" style="mask-type:luminance" maskUnits="userSpaceOnUse" x="0" y="0" width="34" height="37">
<path d="M33.7142 16.6869C33.7142 7.47393 26.2301 0.00390625 16.9999 0.00390625C7.76963 0.00390625 0.285583 7.47393 0.285583 16.6869C0.285583 21.7532 2.55081 26.2884 6.12239 29.3462L4.11668 32.8123V35.565C4.11668 35.8064 4.31461 36.004 4.55653 36.004C4.6379 36.004 4.71267 35.982 4.77865 35.9447L7.16484 34.5706L9.0276 31.3525C11.3962 32.6389 14.1123 33.3698 16.9999 33.3698C19.8875 33.3698 22.6036 32.6389 24.9744 31.3525L26.8371 34.5706L29.2233 35.9447C29.2893 35.9821 29.3641 36.004 29.4454 36.004C29.6873 36.004 29.8853 35.8064 29.8853 35.565V32.8123L27.8796 29.3462C31.4489 26.2884 33.7142 21.7532 33.7142 16.6869Z" fill="white"/>
</mask>
<g mask="url(#mask6_1_3450)">
<path d="M13.4437 16.6869L4.55658 36.004H33.7142V21.0771L18.7593 6.15027L15.2405 8.78442L13.4437 16.6869Z" fill="url(#paint0_linear_1_3450)"/>
</g>
<mask id="mask7_1_3450" style="mask-type:luminance" maskUnits="userSpaceOnUse" x="0" y="0" width="34" height="37">
<path d="M33.7142 16.6869C33.7142 7.47393 26.2301 0.00390625 16.9999 0.00390625C7.76963 0.00390625 0.285583 7.47393 0.285583 16.6869C0.285583 21.7532 2.55081 26.2884 6.12239 29.3462L4.11668 32.8123V35.565C4.11668 35.8064 4.31461 36.004 4.55653 36.004C4.6379 36.004 4.71267 35.982 4.77865 35.9447L7.16484 34.5706L9.0276 31.3525C11.3962 32.6389 14.1123 33.3698 16.9999 33.3698C19.8875 33.3698 22.6036 32.6389 24.9744 31.3525L26.8371 34.5706L29.2233 35.9447C29.2893 35.9821 29.3641 36.004 29.4454 36.004C29.6873 36.004 29.8853 35.8064 29.8853 35.565V32.8123L27.8796 29.3462C31.4489 26.2884 33.7142 21.7532 33.7142 16.6869Z" fill="white"/>
</mask>
<g mask="url(#mask7_1_3450)">
<path d="M16.9999 0.223419C26.1576 0.223419 33.591 7.5749 33.7076 16.6869H33.7142C33.7142 7.47393 26.2301 0.00390625 16.9999 0.00390625C7.76963 0.00390625 0.285583 7.47393 0.285583 16.6869H0.292181C0.408741 7.5749 7.84221 0.223419 16.9999 0.223419Z" fill="white" fill-opacity="0.2"/>
</g>
<mask id="mask8_1_3450" style="mask-type:luminance" maskUnits="userSpaceOnUse" x="0" y="0" width="34" height="37">
<path d="M33.7142 16.6869C33.7142 7.47393 26.2301 0.00390625 16.9999 0.00390625C7.76963 0.00390625 0.285583 7.47393 0.285583 16.6869C0.285583 21.7532 2.55081 26.2884 6.12239 29.3462L4.11668 32.8123V35.565C4.11668 35.8064 4.31461 36.004 4.55653 36.004C4.6379 36.004 4.71267 35.982 4.77865 35.9447L7.16484 34.5706L9.0276 31.3525C11.3962 32.6389 14.1123 33.3698 16.9999 33.3698C19.8875 33.3698 22.6036 32.6389 24.9744 31.3525L26.8371 34.5706L29.2233 35.9447C29.2893 35.9821 29.3641 36.004 29.4454 36.004C29.6873 36.004 29.8853 35.8064 29.8853 35.565V32.8123L27.8796 29.3462C31.4489 26.2884 33.7142 21.7532 33.7142 16.6869Z" fill="white"/>
</mask>
<g mask="url(#mask8_1_3450)">
<path d="M20.5556 16.687H16.4914L26.8367 34.5707L29.2228 35.9449C29.2888 35.9822 29.3636 36.0041 29.445 36.0041C29.6869 36.0041 29.8848 35.8066 29.8848 35.5651V32.8124L20.5556 16.687Z" fill="#D7EFFE"/>
<path opacity="0.3" d="M20.5556 16.687H16.4914L26.8367 34.5707L29.2228 35.9449C29.2888 35.9822 29.3636 36.0041 29.445 36.0041C29.6869 36.0041 29.8848 35.8066 29.8848 35.5651V32.8124L20.5556 16.687Z" fill="#BDBDBD"/>
<path d="M29.8833 32.8123L20.5563 16.6869H20.4287L29.8833 33.0318V32.8123Z" fill="white" fill-opacity="0.2"/>
<path d="M29.4428 35.7846C29.3614 35.7846 29.2866 35.7627 29.2206 35.7254L26.8345 34.3512L16.619 16.687H16.4914L26.8367 34.5707L29.2228 35.9449C29.2888 35.9822 29.3636 36.0041 29.445 36.0041C29.6869 36.0041 29.8848 35.8066 29.8848 35.5651V35.3456C29.8826 35.5871 29.6847 35.7846 29.4428 35.7846Z" fill="#212121" fill-opacity="0.1"/>
</g>
<mask id="mask9_1_3450" style="mask-type:luminance" maskUnits="userSpaceOnUse" x="0" y="0" width="34" height="37">
<path d="M33.7142 16.6869C33.7142 7.47393 26.2301 0.00390625 16.9999 0.00390625C7.76963 0.00390625 0.285583 7.47393 0.285583 16.6869C0.285583 21.7532 2.55081 26.2884 6.12239 29.3462L4.11668 32.8123V35.565C4.11668 35.8064 4.31461 36.004 4.55653 36.004C4.6379 36.004 4.71267 35.982 4.77865 35.9447L7.16484 34.5706L9.0276 31.3525C11.3962 32.6389 14.1123 33.3698 16.9999 33.3698C19.8875 33.3698 22.6036 32.6389 24.9744 31.3525L26.8371 34.5706L29.2233 35.9447C29.2893 35.9821 29.3641 36.004 29.4454 36.004C29.6873 36.004 29.8853 35.8064 29.8853 35.565V32.8123L27.8796 29.3462C31.4489 26.2884 33.7142 21.7532 33.7142 16.6869Z" fill="white"/>
</mask>
<g mask="url(#mask9_1_3450)">
<path d="M25.7967 16.6868C25.7967 21.5358 21.8579 25.4673 16.9997 25.4673C15.5548 25.4673 14.1913 25.1183 12.9883 24.5014L16.9997 17.5648L17.5077 16.6868H13.4435L4.11432 32.8122V35.5649C4.11432 35.8063 4.31225 36.0039 4.55417 36.0039C4.63554 36.0039 4.71032 35.9819 4.77629 35.9446L7.16248 34.5705L11.2267 27.5461C12.9487 28.4592 14.9126 28.9795 16.9997 28.9795C23.802 28.9795 29.3155 23.4763 29.3155 16.6868H25.7967Z" fill="#D7EFFE"/>
<path d="M13.4435 16.6868L4.11432 32.8122V33.0317L13.5711 16.6868H13.4435ZM16.9997 25.4673C15.5548 25.4673 14.1913 25.1183 12.9883 24.5014V24.7209C14.1913 25.3378 15.5548 25.6868 16.9997 25.6868C21.8579 25.6868 25.7967 21.7553 25.7967 16.9063H29.3089C29.3111 16.8338 29.3155 16.7614 29.3155 16.6868H25.7967C25.7967 21.5358 21.8579 25.4673 16.9997 25.4673Z" fill="white" fill-opacity="0.4"/>
<path d="M17.5077 16.6868H17.3802L12.9861 24.2819V24.5014L17.5077 16.6868ZM29.3089 16.6868C29.1902 23.3731 23.7272 28.76 16.9997 28.76C14.9126 28.76 12.9487 28.2397 11.2267 27.3266L7.16248 34.351L4.77629 35.7251C4.71032 35.7624 4.63554 35.7844 4.55417 35.7844C4.31225 35.7844 4.11432 35.5868 4.11432 35.3454V35.5649C4.11432 35.8063 4.31225 36.0039 4.55417 36.0039C4.63554 36.0039 4.71032 35.9819 4.77629 35.9446L7.16248 34.5705L11.2267 27.5461C12.9487 28.4592 14.9126 28.9795 16.9997 28.9795C23.802 28.9795 29.3155 23.4763 29.3155 16.6868H29.3089Z" fill="#212121" fill-opacity="0.1"/>
</g>
<mask id="mask10_1_3450" style="mask-type:luminance" maskUnits="userSpaceOnUse" x="0" y="0" width="34" height="37">
<path d="M33.7142 16.6869C33.7142 7.47393 26.2301 0.00390625 16.9999 0.00390625C7.76963 0.00390625 0.285583 7.47393 0.285583 16.6869C0.285583 21.7532 2.55081 26.2884 6.12239 29.3462L4.11668 32.8123V35.565C4.11668 35.8064 4.31461 36.004 4.55653 36.004C4.6379 36.004 4.71267 35.982 4.77865 35.9447L7.16484 34.5706L9.0276 31.3525C11.3962 32.6389 14.1123 33.3698 16.9999 33.3698C19.8875 33.3698 22.6036 32.6389 24.9744 31.3525L26.8371 34.5706L29.2233 35.9447C29.2893 35.9821 29.3641 36.004 29.4454 36.004C29.6873 36.004 29.8853 35.8064 29.8853 35.565V32.8123L27.8796 29.3462C31.4489 26.2884 33.7142 21.7532 33.7142 16.6869Z" fill="white"/>
</mask>
<g mask="url(#mask10_1_3450)">
<path d="M20.9586 8.78467H18.7594V6.15051H15.2406V8.78467H13.0414C12.3156 8.78467 11.7218 9.37735 11.7218 10.1017V16.6871L16.0675 21.0203C16.3072 21.2574 16.6349 21.4067 17 21.4067C17.3651 21.4067 17.695 21.2596 17.9325 21.0203L22.2782 16.6871V10.1017C22.2782 9.37735 21.6844 8.78467 20.9586 8.78467ZM17 16.2481C15.786 16.2481 14.8008 15.2647 14.8008 14.053C14.8008 12.8413 15.786 11.8578 17 11.8578C18.214 11.8578 19.1992 12.8413 19.1992 14.053C19.1992 15.2647 18.214 16.2481 17 16.2481Z" fill="#073042"/>
</g>
<mask id="mask11_1_3450" style="mask-type:luminance" maskUnits="userSpaceOnUse" x="0" y="0" width="34" height="37">
<path d="M33.7142 16.6869C33.7142 7.47393 26.2301 0.00390625 16.9999 0.00390625C7.76963 0.00390625 0.285583 7.47393 0.285583 16.6869C0.285583 21.7532 2.55081 26.2884 6.12239 29.3462L4.11668 32.8123V35.565C4.11668 35.8064 4.31461 36.004 4.55653 36.004C4.6379 36.004 4.71267 35.982 4.77865 35.9447L7.16484 34.5706L9.0276 31.3525C11.3962 32.6389 14.1123 33.3698 16.9999 33.3698C19.8875 33.3698 22.6036 32.6389 24.9744 31.3525L26.8371 34.5706L29.2233 35.9447C29.2893 35.9821 29.3641 36.004 29.4454 36.004C29.6873 36.004 29.8853 35.8064 29.8853 35.565V32.8123L27.8796 29.3462C31.4489 26.2884 33.7142 21.7532 33.7142 16.6869Z" fill="white"/>
</mask>
<g mask="url(#mask11_1_3450)">
<path d="M20.9585 8.78442H18.7593V9.00393H20.9585C21.6843 9.00393 22.2781 9.59662 22.2781 10.321V10.1015C22.2781 9.37711 21.6843 8.78442 20.9585 8.78442ZM18.7593 6.15027H15.2405V6.36978H18.7593V6.15027ZM15.2405 8.78442H13.0412C12.3155 8.78442 11.7217 9.37711 11.7217 10.1015V10.321C11.7217 9.59662 12.3155 9.00393 13.0412 9.00393H15.2405V8.78442ZM16.9999 16.2479C15.7859 16.2479 14.8006 15.2644 14.8006 14.0527V14.2722C14.8006 15.484 15.7859 16.4674 16.9999 16.4674C18.2139 16.4674 19.1991 15.484 19.1991 14.2722V14.0527C19.1991 15.2644 18.2139 16.2479 16.9999 16.2479Z" fill="white" fill-opacity="0.1"/>
</g>
<mask id="mask12_1_3450" style="mask-type:luminance" maskUnits="userSpaceOnUse" x="0" y="0" width="34" height="37">
<path d="M33.7142 16.6869C33.7142 7.47393 26.2301 0.00390625 16.9999 0.00390625C7.76963 0.00390625 0.285583 7.47393 0.285583 16.6869C0.285583 21.7532 2.55081 26.2884 6.12239 29.3462L4.11668 32.8123V35.565C4.11668 35.8064 4.31461 36.004 4.55653 36.004C4.6379 36.004 4.71267 35.982 4.77865 35.9447L7.16484 34.5706L9.0276 31.3525C11.3962 32.6389 14.1123 33.3698 16.9999 33.3698C19.8875 33.3698 22.6036 32.6389 24.9744 31.3525L26.8371 34.5706L29.2233 35.9447C29.2893 35.9821 29.3641 36.004 29.4454 36.004C29.6873 36.004 29.8853 35.8064 29.8853 35.565V32.8123L27.8796 29.3462C31.4489 26.2884 33.7142 21.7532 33.7142 16.6869Z" fill="white"/>
</mask>
<g mask="url(#mask12_1_3450)">
<path d="M16.9999 11.8576C18.2139 11.8576 19.1991 12.841 19.1991 14.0527V13.8332C19.1991 12.6215 18.2139 11.6381 16.9999 11.6381C15.7859 11.6381 14.8006 12.6215 14.8006 13.8332V14.0527C14.8006 12.841 15.7859 11.8576 16.9999 11.8576ZM17.9324 20.8005C17.6926 21.0376 17.365 21.1869 16.9999 21.1869C16.6348 21.1869 16.3049 21.0398 16.0674 20.8005L11.7217 16.4673V16.6869L16.0674 21.02C16.3071 21.2571 16.6348 21.4064 16.9999 21.4064C17.365 21.4064 17.6948 21.2593 17.9324 21.02L22.2781 16.6869V16.4673L17.9324 20.8005Z" fill="#212121" fill-opacity="0.1"/>
</g>
<path d="M33.7142 16.6869C33.7142 7.47393 26.2301 0.00390625 16.9999 0.00390625C7.76963 0.00390625 0.285583 7.47393 0.285583 16.6869C0.285583 21.7532 2.55081 26.2884 6.12239 29.3462L4.11667 32.8123V35.565C4.11667 35.8064 4.31461 36.004 4.55652 36.004C4.6379 36.004 4.71267 35.982 4.77865 35.9447L7.16484 34.5706L9.0276 31.3525C11.3962 32.6389 14.1123 33.3699 16.9999 33.3699C19.8875 33.3699 22.6036 32.6389 24.9744 31.3525L26.8371 34.5706L29.2233 35.9447C29.2893 35.9821 29.3641 36.004 29.4454 36.004C29.6873 36.004 29.8853 35.8064 29.8853 35.565V32.8123L27.8796 29.3462C31.4489 26.2884 33.7142 21.7532 33.7142 16.6869Z" fill="url(#paint1_radial_1_3450)"/>
<defs>
<linearGradient id="paint0_linear_1_3450" x1="13.1203" y1="21.7188" x2="28.8842" y2="30.5615" gradientUnits="userSpaceOnUse">
<stop stop-color="#263238" stop-opacity="0.2"/>
<stop offset="1" stop-color="#263238" stop-opacity="0.02"/>
</linearGradient>
<radialGradient id="paint1_radial_1_3450" cx="0" cy="0" r="1" gradientUnits="userSpaceOnUse" gradientTransform="translate(5.20266 4.87511) scale(39.6138 42.6611)">
<stop stop-color="white" stop-opacity="0.1"/>
<stop offset="1" stop-color="white" stop-opacity="0"/>
</radialGradient>
</defs>
</svg>
