<svg width="36" height="36" viewBox="0 0 36 36" fill="none" xmlns="http://www.w3.org/2000/svg">
<path d="M17.9523 2.354L3.08197 7.52912L5.43191 26.7967L17.968 33.6107L30.5687 26.7044L32.9179 7.43748L17.9523 2.354Z" fill="#BDBDBD"/>
<path d="M35.0137 5.80123L17.9999 0.0220947V35.7891L32.314 27.9431L35.0137 5.80123Z" fill="#B71C1C"/>
<path d="M17.9466 0.00390625L0.985352 5.9069L3.68596 28.0569L17.9557 35.8125L18 35.789V0.0219891L17.9466 0.00390625Z" fill="#DD2C00"/>
<path d="M17.9999 1.70459V10.301L25.7555 27.0236H29.7417L17.9999 1.70459Z" fill="#BDBDBD"/>
<path d="M6.25781 27.0236H10.2441L17.9996 10.301V1.70459L6.25781 27.0236Z" fill="#EEEEEE"/>
<path d="M17.9999 17.9824H23.4247V21.5989H17.9999V17.9824Z" fill="#BDBDBD"/>
<path d="M12.5752 17.9824H17.9999V21.5989H12.5752V17.9824Z" fill="#EEEEEE"/>
</svg>
