<svg width="44" height="44" viewBox="0 0 44 44" fill="none" xmlns="http://www.w3.org/2000/svg">
<rect y="0.00390625" width="44" height="44" rx="22" fill="#512BD4"/>
<path d="M7.12 27.4395C6.8089 27.4395 6.54445 27.3358 6.32667 27.1285C6.10889 26.9158 6 26.6633 6 26.3709C6 26.0732 6.10889 25.818 6.32667 25.6054C6.54445 25.3927 6.8089 25.2864 7.12 25.2864C7.4363 25.2864 7.70334 25.3927 7.92112 25.6054C8.14408 25.818 8.25557 26.0732 8.25557 26.3709C8.25557 26.6633 8.14408 26.9158 7.92112 27.1285C7.70334 27.3358 7.4363 27.4395 7.12 27.4395Z" fill="white"/>
<path d="M19.7137 27.4396H17.6915L12.3637 19.0343C12.2289 18.8216 12.1174 18.601 12.0293 18.3724H11.9826C12.0241 18.617 12.0448 19.1406 12.0448 19.9434V27.4396H10.2559V16.0039H12.4103L17.5593 24.2098C17.7771 24.5501 17.9171 24.784 17.9793 24.9116H18.0104C17.9586 24.6086 17.9326 24.0956 17.9326 23.3725V16.0039H19.7137V27.4396Z" fill="white"/>
<path d="M27.975 27.4396H21.7139V16.0039H27.7261V17.6148H23.5651V20.8525H27.3995V22.4554H23.5651V25.8367H27.975V27.4396Z" fill="white"/>
<path d="M38.2269 17.6148H35.0225V27.4396H33.1713V17.6148H29.9746V16.0039H38.2269V17.6148Z" fill="white"/>
</svg>
