<svg width="30" height="32" viewBox="0 0 30 32" fill="none" xmlns="http://www.w3.org/2000/svg">
<path d="M29.5716 27.9996C29.5835 30.1966 27.7972 31.9856 25.5835 31.9975C25.4189 31.9988 25.253 31.9896 25.0898 31.9698C23.0354 31.6684 21.5304 29.8952 21.5808 27.8363V4.16498C21.5317 2.10351 23.0407 0.330328 25.0964 0.031507C27.2955 -0.223873 29.2876 1.33737 29.545 3.51863C29.5636 3.67923 29.5729 3.83983 29.5716 4.00174V27.9996Z" fill="#F9AB00"/>
<path d="M4.42423 24.0767C6.63129 24.0767 8.42029 25.8512 8.42029 28.0404C8.42029 30.2296 6.63129 32.0041 4.42423 32.0041C2.21717 32.0041 0.428162 30.2296 0.428162 28.0404C0.428162 25.8512 2.21717 24.0767 4.42423 24.0767ZM14.938 12.0647C12.7203 12.1858 11.0003 14.03 11.052 16.2324V26.878C11.052 29.7675 12.3341 31.5209 14.212 31.8948C16.3792 32.3305 18.4908 30.9417 18.93 28.7921C18.9845 28.5288 19.011 28.2616 19.0097 27.993V16.0481C19.0137 13.851 17.222 12.0673 15.007 12.0634C14.9844 12.0634 14.9605 12.0634 14.938 12.0647Z" fill="#E37400"/>
</svg>
