<svg width="38" height="28" viewBox="0 0 38 28" fill="none" xmlns="http://www.w3.org/2000/svg">
<path d="M35.9319 1.77101C33.6503 -0.51777 29.9207 -0.6058 27.5513 1.63896C27.4196 1.72699 27.3758 1.90305 27.3758 2.0351C27.3758 2.21116 27.4196 2.3432 27.5513 2.43123L28.2972 3.17948C28.5166 3.39956 28.8237 3.39956 29.0431 3.2235C30.5788 2.07911 32.7288 2.38722 33.8697 3.92774C34.9227 5.2922 34.7472 7.22886 33.5625 8.46128C28.7798 13.3029 22.3737 -0.121635 7.89403 6.78871C6.92872 7.22886 6.48995 8.41726 6.92872 9.4296C6.9726 9.47362 6.9726 9.51764 7.01648 9.56165L9.51751 13.8751C10.044 14.7994 11.2287 15.1515 12.1941 14.6234L13.291 14.0072C14.5196 13.2589 15.6604 12.3786 16.7573 11.4103C16.9767 11.1902 17.3277 11.1902 17.5471 11.3663C17.8104 11.5423 17.8543 11.9385 17.6349 12.1585C17.6349 12.2025 17.591 12.2025 17.5471 12.2466C16.4063 13.2589 15.1777 14.1832 13.9053 15.0195H13.8614L12.7645 15.6357C11.2726 16.472 9.38588 15.9438 8.50832 14.4473L6.13892 10.3979C1.66339 13.567 -1.05703 19.7291 0.39094 27.5197C0.434817 27.7838 0.698084 28.0039 0.96135 28.0039H3.63789C3.94504 28.0039 4.16443 27.7838 4.2083 27.4757C4.47157 25.319 6.44607 23.7785 8.59608 24.0866C10.3512 24.3067 11.7553 25.7151 11.9747 27.4757C12.0185 27.7838 12.2379 27.9599 12.5451 28.0039H15.1339C15.441 28.0039 15.6604 27.7838 15.7043 27.4757C15.9675 25.319 17.942 23.7785 20.092 24.0866C21.8472 24.3067 23.2512 25.7151 23.4706 27.4757C23.5145 27.7838 23.7778 28.0039 24.0849 28.0039H26.6737C26.9809 28.0039 27.2441 27.7398 27.2441 27.4317C27.288 23.7785 28.2972 19.5971 31.0615 17.5284C40.7146 10.2219 38.1697 4.01577 35.9319 1.77101ZM26.0594 12.7307L24.2166 11.8064C24.2166 11.1462 24.7431 10.662 25.3574 10.662C26.0155 10.662 26.4982 11.1902 26.4982 11.8064C26.5421 12.1585 26.3666 12.5107 26.0594 12.7307Z" fill="url(#paint0_linear_1_3435)"/>
<defs>
<linearGradient id="paint0_linear_1_3435" x1="0.630556" y1="12.3316" x2="37.2857" y2="16.1721" gradientUnits="userSpaceOnUse">
<stop stop-color="#06A0CE"/>
<stop offset="1" stop-color="#51CBBF"/>
</linearGradient>
</defs>
</svg>
