<svg width="32" height="32" viewBox="0 0 32 32" fill="none" xmlns="http://www.w3.org/2000/svg">
<g clip-path="url(#clip0_1_3330)">
<path d="M32 0.00390625H0V32.0039H32V0.00390625Z" fill="#F7DF1E"/>
<path d="M21.496 25.004C22.1406 26.0564 22.9792 26.83 24.4624 26.83C25.7083 26.83 26.5043 26.2073 26.5043 25.3469C26.5043 24.3157 25.6865 23.9505 24.3151 23.3507L23.5633 23.0281C21.3934 22.1037 19.9519 20.9456 19.9519 18.4973C19.9519 16.2421 21.6702 14.5253 24.3557 14.5253C26.2676 14.5253 27.642 15.1907 28.6325 16.9329L26.2909 18.4364C25.7754 17.5119 25.2192 17.1477 24.3557 17.1477C23.4749 17.1477 22.9167 17.7065 22.9167 18.4364C22.9167 19.3385 23.4754 19.7037 24.7656 20.2624L25.5173 20.5844C28.0723 21.6801 29.5148 22.797 29.5148 25.3083C29.5148 28.0156 27.3881 29.4987 24.5319 29.4987C21.7393 29.4987 19.9351 28.1679 19.0523 26.4237L21.496 25.004ZM10.8735 25.2646C11.3459 26.1027 11.7756 26.8112 12.8088 26.8112C13.7967 26.8112 14.4199 26.4247 14.4199 24.9217V14.6969H17.4269V24.9623C17.4269 28.076 15.6014 29.4931 12.9368 29.4931C10.5291 29.4931 9.13486 28.2472 8.42578 26.7465L10.8735 25.2646Z" fill="black"/>
</g>
<defs>
<clipPath id="clip0_1_3330">
<rect width="32" height="32" fill="white" transform="translate(0 0.00390625)"/>
</clipPath>
</defs>
</svg>
