<svg width="40" height="40" viewBox="0 0 40 40" fill="none" xmlns="http://www.w3.org/2000/svg">
<path fill-rule="evenodd" clip-rule="evenodd" d="M16.6785 21.1143C16.6785 21.1143 15.7231 21.6703 17.3592 21.8581C19.3418 22.0845 20.3544 22.0519 22.5386 21.6387C22.5386 21.6387 23.1136 21.9988 23.9163 22.3102C19.0187 24.4089 12.8322 22.1888 16.6785 21.1143ZM16.0798 18.3757C16.0798 18.3757 15.008 19.1691 16.6455 19.3384C18.7634 19.5571 20.4352 19.575 23.3298 19.018C23.3298 19.018 23.7295 19.4237 24.3585 19.6453C18.4378 21.377 11.8438 19.7817 16.0798 18.3757Z" fill="#3174B9"/>
<path fill-rule="evenodd" clip-rule="evenodd" d="M21.1245 13.7297C22.3319 15.1195 20.8081 16.3693 20.8081 16.3693C20.8081 16.3693 23.8723 14.7879 22.4649 12.8067C21.1509 10.96 20.143 10.0426 25.5988 6.87878C25.5988 6.87878 17.0346 9.01682 21.1245 13.7297Z" fill="#CA3132"/>
<path fill-rule="evenodd" clip-rule="evenodd" d="M27.6017 23.1401C27.6017 23.1401 28.309 23.7232 26.8227 24.1742C23.9966 25.0302 15.0578 25.2883 12.5749 24.2082C11.683 23.8197 13.3564 23.2812 13.8829 23.1675C14.4319 23.0488 14.7453 23.0704 14.7453 23.0704C13.7527 22.3715 8.32972 24.4431 11.9911 25.0374C21.9752 26.6563 30.1911 24.3086 27.6017 23.1401ZM17.1382 15.538C17.1382 15.538 12.5919 16.6181 15.5285 17.0107C16.7688 17.1765 19.2395 17.1383 21.5427 16.9451C23.4244 16.7872 25.3133 16.4494 25.3133 16.4494C25.3133 16.4494 24.6502 16.7339 24.1698 17.0613C19.5524 18.2759 10.6338 17.7102 13.2016 16.4687C15.3726 15.4184 17.1382 15.538 17.1382 15.538ZM25.2944 20.0965C29.9878 17.6582 27.8178 15.3145 26.3027 15.6303C25.9323 15.7077 25.7661 15.7745 25.7661 15.7745C25.7661 15.7745 25.9043 15.5583 26.167 15.4653C29.1637 14.4122 31.468 18.5723 25.2008 20.2197C25.2006 20.2197 25.2728 20.1546 25.2944 20.0965Z" fill="#3174B9"/>
<path fill-rule="evenodd" clip-rule="evenodd" d="M22.4649 1.76868C22.4649 1.76868 25.0636 4.36906 19.9994 8.36645C15.9381 11.5742 19.0734 13.4027 19.9981 15.4926C17.6271 13.3537 15.8879 11.4705 17.0545 9.71821C18.7674 7.14604 23.5135 5.89866 22.4649 1.76868Z" fill="#CA3132"/>
<path fill-rule="evenodd" clip-rule="evenodd" d="M17.5999 26.7059C22.1042 26.9939 29.0226 26.5459 29.1867 24.4141C29.1867 24.4141 28.8717 25.2221 25.4637 25.8631C21.6186 26.587 16.8754 26.5027 14.0632 26.0385C14.0632 26.0385 14.6394 26.5154 17.5999 26.7059Z" fill="#3174B9"/>
<path fill-rule="evenodd" clip-rule="evenodd" d="M28.9786 30.5288H28.8416V30.452H29.2112V30.5288H29.0743V30.9123H28.9786V30.5288ZM29.7161 30.5479H29.7145L29.5783 30.9121H29.5159L29.3806 30.5479H29.3789V30.9121H29.288V30.4518H29.4214L29.5468 30.7774L29.6721 30.4518H29.8043V30.9121H29.7163L29.7161 30.5479ZM16.8617 34.8503C16.437 35.2185 15.9879 35.4256 15.5847 35.4256C15.0103 35.4256 14.6986 35.0805 14.6986 34.5283C14.6986 33.9304 15.0323 33.493 16.3678 33.493H16.8615L16.8617 34.8503ZM18.0342 36.173V32.0783C18.0342 31.0318 17.4374 30.3412 15.9987 30.3412C15.1593 30.3412 14.4234 30.5485 13.8252 30.8127L13.9974 31.538C14.4687 31.3649 15.0779 31.2045 15.676 31.2045C16.5048 31.2045 16.8615 31.538 16.8615 32.2284V32.7461H16.4473C14.434 32.7461 13.5255 33.5272 13.5255 34.7015C13.5255 35.7134 14.1242 36.2886 15.2512 36.2886C15.9756 36.2886 16.5168 35.9896 17.0221 35.552L17.1141 36.173H18.0342ZM21.9473 36.173H20.4854L18.725 30.4454H20.0021L21.0947 33.9651L21.3379 35.0226C21.889 33.493 22.2802 31.9401 22.4759 30.4454H23.7177C23.3852 32.3313 22.7863 34.4019 21.9473 36.173ZM27.558 34.8503C27.1319 35.2185 26.6829 35.4256 26.2805 35.4256C25.7061 35.4256 25.3948 35.0805 25.3948 34.5283C25.3948 33.9304 25.7287 33.493 27.0634 33.493H27.558V34.8503ZM28.7308 36.173V32.0783C28.7308 31.0318 28.1321 30.3412 26.6949 30.3412C25.8547 30.3412 25.119 30.5485 24.5207 30.8127L24.693 31.538C25.1643 31.3649 25.7748 31.2045 26.373 31.2045C27.2006 31.2045 27.5577 31.538 27.5577 32.2284V32.7461H27.1435C25.13 32.7461 24.2221 33.5272 24.2221 34.7015C24.2221 35.7134 24.8196 36.2886 25.9468 36.2886C26.6719 36.2886 27.2122 35.9896 27.7188 35.552L27.8111 36.173H28.7308ZM12.2399 37.1463C11.9058 37.6346 11.3655 38.0212 10.7747 38.2393L10.1957 37.5574C10.6458 37.3264 11.0314 36.9535 11.2109 36.6065C11.3655 36.2973 11.43 35.8997 11.43 34.9481V28.4082H12.6761V34.8578C12.6761 36.1307 12.5745 36.6451 12.2399 37.1463Z" fill="#CA3132"/>
</svg>
