<svg width="30" height="30" viewBox="0 0 30 30" fill="none" xmlns="http://www.w3.org/2000/svg">
<g clip-path="url(#clip0_1_3381)">
<path d="M13.7401 0.40418C14.4901 -0.0205074 15.4464 -0.0223824 16.1776 0.40418L27.3751 6.71637C28.0754 7.11012 28.5442 7.89106 28.5376 8.69824V21.3545C28.5423 22.1954 28.0276 22.9932 27.2889 23.3795L16.1514 29.6626C15.7704 29.8731 15.3401 29.9778 14.905 29.9658C14.4699 29.9537 14.046 29.8254 13.6773 29.5942L10.3351 27.6629C10.1073 27.527 9.85137 27.4192 9.69012 27.1989C9.83262 27.0076 10.0857 26.9832 10.292 26.8989C10.757 26.7507 11.1826 26.5239 11.6101 26.2839C11.7179 26.2089 11.8501 26.237 11.9532 26.3045L14.8032 27.9526C15.0067 28.0698 15.2129 27.9151 15.3873 27.8167L26.3232 21.6451C26.4582 21.5795 26.5332 21.437 26.522 21.2889V8.75449C26.537 8.58574 26.4404 8.43199 26.2876 8.36356L15.1782 2.10762C15.1142 2.06334 15.0383 2.03954 14.9604 2.03937C14.8826 2.0392 14.8065 2.06268 14.7423 2.10668L3.64887 8.37574C3.49887 8.44418 3.39575 8.59606 3.4145 8.76481V21.2992C3.40137 21.4473 3.48012 21.587 3.61606 21.6507L6.58043 23.3242C7.13731 23.6242 7.82075 23.7929 8.43387 23.5726C8.70218 23.4715 8.93316 23.2908 9.09586 23.0547C9.25857 22.8186 9.34521 22.5384 9.34418 22.2517L9.347 9.79231C9.33387 9.60762 9.50825 9.45481 9.68731 9.47356H11.1123C11.2998 9.46887 11.447 9.66762 11.4217 9.85324L11.4189 22.3914C11.4198 23.5051 10.9623 24.7164 9.932 25.2629C8.66262 25.9192 7.09325 25.7814 5.83887 25.1504L2.65137 23.3879C1.90137 23.0129 1.39793 22.2029 1.40262 21.3629V8.70668C1.40574 8.29533 1.51882 7.8923 1.73015 7.53937C1.94148 7.18645 2.24336 6.89647 2.6045 6.69949L13.7401 0.40418ZM16.9689 9.17731C18.5879 9.08356 20.3214 9.11543 21.7782 9.91324C22.9061 10.5245 23.5314 11.807 23.552 13.0614C23.5201 13.2301 23.3439 13.3239 23.1826 13.3117C22.7139 13.3107 22.2432 13.3182 21.7726 13.3089C21.5729 13.3164 21.4576 13.1326 21.4323 12.9564C21.2973 12.3564 20.9701 11.7629 20.4057 11.4732C19.5395 11.0392 18.5345 11.0607 17.5895 11.0701C16.8995 11.1076 16.1579 11.1667 15.5739 11.5717C15.1239 11.8792 14.9889 12.5092 15.1492 12.9986C15.2992 13.3576 15.7145 13.4729 16.0529 13.5798C18.0048 14.0898 20.072 14.0486 21.9873 14.7114C22.7795 14.9851 23.5548 15.5176 23.8267 16.3473C24.1811 17.4592 24.0264 18.7886 23.2361 19.6811C22.5948 20.4161 21.6611 20.8061 20.7282 21.0329C19.4879 21.3095 18.2017 21.3161 16.9426 21.1923C15.7586 21.0573 14.5267 20.7461 13.6126 19.9398C12.8307 19.2611 12.4501 18.2036 12.4876 17.1836C12.497 17.0111 12.6686 16.8911 12.8345 16.9051H14.2407C14.4301 16.892 14.5689 17.0551 14.5782 17.2332C14.6654 17.7957 14.8801 18.4051 15.3789 18.7332C16.3407 19.3539 17.5473 19.3107 18.6479 19.3286C19.5601 19.2882 20.5839 19.2761 21.3292 18.6723C21.7229 18.3282 21.8382 17.7536 21.7323 17.2586C21.617 16.8404 21.1698 16.6464 20.7948 16.5086C18.8682 15.8992 16.7776 16.1204 14.8698 15.4304C14.0954 15.1567 13.3464 14.6392 13.0492 13.8432C12.6339 12.7182 12.8242 11.3242 13.6989 10.4617C14.5426 9.60387 15.7801 9.27293 16.952 9.15481L16.9689 9.17731Z" fill="#8CC84B"/>
</g>
<defs>
<clipPath id="clip0_1_3381">
<rect width="30" height="30" fill="white" transform="translate(0 0.00390625)"/>
</clipPath>
</defs>
</svg>
