<svg width="44" height="40" viewBox="0 0 44 40" fill="none" xmlns="http://www.w3.org/2000/svg">
<g clip-path="url(#clip0_1_3319)">
<path d="M22.0001 23.9256C24.166 23.9256 25.9218 22.1697 25.9218 20.0038C25.9218 17.8379 24.166 16.0821 22.0001 16.0821C19.8342 16.0821 18.0783 17.8379 18.0783 20.0038C18.0783 22.1697 19.8342 23.9256 22.0001 23.9256Z" fill="#61DAFB"/>
<path d="M21.9998 28.0387C33.6218 28.0387 43.0433 24.4414 43.0433 20.0039C43.0433 15.5664 33.6218 11.9691 21.9998 11.9691C10.3778 11.9691 0.956329 15.5664 0.956329 20.0039C0.956329 24.4414 10.3778 28.0387 21.9998 28.0387Z" stroke="#61DAFB" stroke-width="0.698413"/>
<path d="M15.0416 24.0214C20.8526 34.0863 28.6787 40.4469 32.5217 38.2282C36.3647 36.0094 34.7693 26.0515 28.9583 15.9866C23.1473 5.92164 15.3212 -0.438963 11.4782 1.77978C7.63525 3.99853 9.23065 13.9564 15.0416 24.0214Z" stroke="#61DAFB" stroke-width="0.698413"/>
<path d="M15.0417 15.9866C9.23073 26.0515 7.63534 36.0094 11.4783 38.2282C15.3213 40.4469 23.1474 34.0863 28.9584 24.0214C34.7694 13.9564 36.3648 3.99853 32.5218 1.77979C28.6788 -0.438955 20.8527 5.92165 15.0417 15.9866Z" stroke="#61DAFB" stroke-width="0.698413"/>
</g>
<defs>
<clipPath id="clip0_1_3319">
<rect width="44" height="39.1475" fill="white" transform="translate(0 0.430115)"/>
</clipPath>
</defs>
</svg>
