<svg width="40" height="40" viewBox="0 0 40 40" fill="none" xmlns="http://www.w3.org/2000/svg">
<path fill-rule="evenodd" clip-rule="evenodd" d="M5.76953 15.9112C6.17054 16.296 9.55203 17.0217 14.5961 17.7776C19.6401 18.4505 24.8858 21.1075 28.9652 20.2882C31.7246 19.733 34.7181 14.7857 34.7181 14.0509V13.9755C34.7181 13.4625 34.1654 13.0506 33.2268 12.7081C29.3793 11.3396 28.6509 10.8357 27.2246 11.1088C19.8201 12.5315 6.74713 11.8043 5.76953 15.9112Z" fill="#380D09"/>
<path fill-rule="evenodd" clip-rule="evenodd" d="M5.76953 25.9568C6.17054 26.3475 9.55203 27.0672 14.5961 27.8247C20.2319 28.5398 25.1329 30.8709 29.2145 30.0501C31.9739 29.4949 34.7181 24.8327 34.7181 24.0964V24.024C34.7181 23.5125 34.1654 23.0991 33.2268 22.7581C30.2918 21.6718 26.414 20.4753 24.9898 20.7484C17.5722 22.1682 7.65753 22.4805 5.76953 25.9568Z" fill="#380D09"/>
<path fill-rule="evenodd" clip-rule="evenodd" d="M5.72873 18.0704V18.1428C5.72649 18.1187 5.72649 18.0945 5.72873 18.0704Z" fill="#555555"/>
<path fill-rule="evenodd" clip-rule="evenodd" d="M29.204 5.94572C22.3846 7.3172 11.566 8.09121 5.73729 8.09121V15.8388C5.73914 15.8655 5.75362 15.891 5.77847 15.9113C9.75606 15.9113 22.0356 15.006 29.4446 13.5877C30.7367 13.3588 32.0036 13.0659 33.2357 12.7111C34.1418 12.4275 34.7271 12.1287 34.7271 11.8179V4.00391C34.7184 4.74019 31.9633 5.39199 29.204 5.94572Z" fill="#DE3423"/>
<path fill-rule="evenodd" clip-rule="evenodd" d="M29.204 15.9928C25.1223 16.812 19.6141 17.4215 14.5961 17.7776C11.2276 18.0175 8.08049 18.1428 5.73729 18.1428V25.8844C5.73914 25.911 5.75362 25.9365 5.77847 25.9568C9.75606 25.9568 22.0356 25.0515 29.4446 23.6348C30.7364 23.4052 32.0033 23.1122 33.2357 22.7582C34.1418 22.473 34.7271 22.1758 34.7271 21.865V14.0509C34.7184 14.7857 31.9633 15.4375 29.204 15.9928Z" fill="#DE3423"/>
<path fill-rule="evenodd" clip-rule="evenodd" d="M29.2039 26.0459C25.1223 26.8652 19.6144 27.4732 14.5963 27.8308C11.2235 28.0707 8.07178 28.1959 5.72859 28.1959V36.0039C9.66499 36.0039 22.0074 35.1062 29.4359 33.6819C32.1736 33.1568 34.7183 32.5593 34.7183 31.9106L34.7181 24.0964C34.7181 24.8388 31.9633 25.4846 29.2039 26.0459Z" fill="#DE3423"/>
</svg>
