<svg width="30" height="30" viewBox="0 0 30 30" fill="none" xmlns="http://www.w3.org/2000/svg">
<path d="M23.5408 30.0039H6.45917C2.89167 30.0039 0 27.1122 0 23.5447V6.46307C0 2.89557 2.89167 0.00390625 6.45917 0.00390625H23.54C27.1083 0.00390625 30 2.89557 30 6.46307V23.5439C30 27.1122 27.1083 30.0039 23.5408 30.0039Z" fill="#0D47A1"/>
<path d="M30 6.46307C30 2.89557 27.1083 0.00390625 23.5408 0.00390625H6.45917C2.89167 0.00390625 0 2.89557 0 6.46307V13.9864C2.5 16.6706 7.085 19.9364 11.3717 19.9081C17.0783 19.8706 25.545 17.6422 30 12.8431V6.46307Z" fill="#1565C0"/>
<path d="M30 6.46307C30 2.89557 27.1083 0.00390625 23.5408 0.00390625H6.45917C2.89167 0.00390625 0 2.89557 0 6.46307V13.7547C2.5 16.6706 6.01583 17.8031 11.4117 17.8422C20.1192 17.9056 26.94 13.8181 30 9.99724V6.46307Z" fill="#1E88E5"/>
<path d="M30 6.46307C30 2.89557 27.1083 0.00390625 23.5408 0.00390625H6.45917C2.89167 0.00390625 0 2.89557 0 6.46307V13.2797C3.67333 15.5039 7.56417 15.9981 10.5617 16.0597C19.3008 16.1097 27.1758 11.6964 30 6.56141V6.46307Z" fill="#29B6F6"/>
<path d="M23.5408 0.00390625H6.45917C2.89167 0.00390625 0 2.89557 0 6.46307V11.4464C3.4725 13.7031 7.06 14.3481 10.7642 14.3181C16.7592 14.3181 26.3625 11.1247 29.3183 3.58641C28.2592 1.46474 26.0733 0.00390625 23.5408 0.00390625Z" fill="#00E5FF"/>
<path d="M23.5408 0.00390625H6.45917C2.89167 0.00390625 0 2.89557 0 6.46307V9.53891C3.95667 12.2031 8.78583 13.3747 14.815 11.9281C22.2675 10.1397 26.4908 6.15557 28.0067 1.80391C26.8467 0.691406 25.275 0.00390625 23.5408 0.00390625Z" fill="#18FFFF"/>
<path d="M12.1125 0.00390625H6.45917C2.89167 0.00390625 0 2.89557 0 6.46307V14.4081L0.0525002 14.4822C3.59417 19.4822 12.3442 22.7114 18.0733 17.4514C21.4067 13.2847 19.48 6.46141 16.9792 4.22224C15.7233 3.09724 13.7583 1.40724 12.1125 0.00390625Z" fill="#448AFF"/>
<path d="M12.4775 0.00390625H6.45917C2.89167 0.00390625 0 2.89557 0 6.46307V14.5614C4.2325 17.8556 10.8375 19.1531 15.4692 14.8997C18.8025 10.7331 16.8758 3.90974 14.375 1.67057C13.8442 1.19557 13.1842 0.616406 12.4775 0.00390625Z" fill="#40C4FF"/>
<path d="M6.45917 0.00390625C2.89167 0.00390625 0 2.89557 0 6.46307V13.0731C3.905 14.7189 8.59583 14.7114 12.1358 11.4622C14.8225 8.10391 14.09 3.02224 12.3958 0.00390625H6.45917Z" fill="#00E5FF"/>
<path d="M6.45917 0.00390625C2.89167 0.00390625 0 2.89557 0 6.46307V10.4014C2.89667 10.7197 5.87917 10.0189 8.31583 7.78141C10.0817 5.57391 10.3658 2.62474 9.875 0.00390625H6.45917Z" fill="#18FFFF"/>
<path d="M5.50626 7.39543C5.50626 7.39543 11.2004 16.0013 15.9879 18.9121C14.1763 19.4946 10.2429 21.8746 3.3846 17.6688C5.13126 20.0629 8.22376 24.8646 15.7938 24.4121C18.4463 24.2829 20.0638 23.4413 21.5521 22.8596C23.0404 22.2779 24.4638 22.3421 25.6929 24.5421C25.9521 22.5363 26.0163 20.6596 23.9463 18.5246C23.9463 18.5246 25.9929 10.7221 17.2788 4.56543C19.0904 8.18876 20.1396 10.2321 19.2879 15.2246C17.3471 13.9304 10.1788 8.15793 8.56126 6.28126C9.72626 8.3521 13.0771 12.8946 14.2413 14.0596C12.1713 12.6363 5.50626 7.39543 5.50626 7.39543Z" fill="#212121"/>
</svg>
