<svg width="30" height="30" viewBox="0 0 30 30" fill="none" xmlns="http://www.w3.org/2000/svg">
<g clip-path="url(#clip0_1_3338)">
<path d="M27.0703 0.00390625H2.92969C1.31167 0.00390625 0 1.31557 0 2.93359V27.0742C0 28.6922 1.31167 30.0039 2.92969 30.0039H27.0703C28.6883 30.0039 30 28.6922 30 27.0742V2.93359C30 1.31557 28.6883 0.00390625 27.0703 0.00390625Z" fill="#3178C6"/>
<path d="M27.0703 0.00390625H2.92969C1.31167 0.00390625 0 1.31557 0 2.93359V27.0742C0 28.6922 1.31167 30.0039 2.92969 30.0039H27.0703C28.6883 30.0039 30 28.6922 30 27.0742V2.93359C30 1.31557 28.6883 0.00390625 27.0703 0.00390625Z" fill="#3178C6"/>
<path fill-rule="evenodd" clip-rule="evenodd" d="M18.5706 23.8764V26.8097C19.0475 27.0541 19.6114 27.2374 20.2625 27.3596C20.9136 27.4819 21.5998 27.543 22.3212 27.543C23.0243 27.543 23.6921 27.4758 24.3249 27.3413C24.9577 27.2069 25.5125 26.9853 25.9893 26.6767C26.4662 26.3682 26.8437 25.9648 27.1218 25.4668C27.4 24.9687 27.5391 24.3531 27.5391 23.6198C27.5391 23.0881 27.4596 22.6221 27.3006 22.2219C27.1417 21.8216 26.9125 21.4657 26.6129 21.154C26.3133 20.8424 25.9542 20.5628 25.5354 20.3153C25.1166 20.0678 24.6444 19.834 24.1186 19.6141C23.7335 19.4552 23.388 19.3009 23.0824 19.1512C22.7767 19.0014 22.5169 18.8487 22.3029 18.6929C22.0889 18.537 21.9238 18.372 21.8077 18.1979C21.6916 18.0237 21.6335 17.8266 21.6335 17.6066C21.6335 17.405 21.6854 17.2231 21.7894 17.0612C21.8933 16.8992 22.04 16.7603 22.2295 16.6441C22.4191 16.528 22.6513 16.4379 22.9264 16.3737C23.2016 16.3096 23.5072 16.2775 23.8435 16.2775C24.088 16.2775 24.3463 16.2958 24.6183 16.3325C24.8904 16.3691 25.164 16.4257 25.4391 16.502C25.7142 16.5784 25.9816 16.6747 26.2415 16.7908C26.5013 16.9069 26.7413 17.0413 26.9613 17.1941V14.4534C26.5151 14.2823 26.0275 14.1555 25.4987 14.073C24.9699 13.9905 24.3631 13.9492 23.6784 13.9492C22.9815 13.9492 22.3212 14.0241 21.6977 14.1738C21.0741 14.3235 20.5254 14.5572 20.0516 14.875C19.5778 15.1928 19.2034 15.5976 18.9283 16.0896C18.6532 16.5815 18.5156 17.1696 18.5156 17.8541C18.5156 18.7279 18.7678 19.4735 19.2722 20.0907C19.7765 20.7079 20.5422 21.2304 21.5693 21.6582C21.9728 21.8232 22.3488 21.9851 22.6972 22.144C23.0457 22.3029 23.3468 22.4679 23.6004 22.639C23.8542 22.8101 24.0544 22.9964 24.2012 23.1981C24.3479 23.3997 24.4212 23.6289 24.4212 23.8856C24.4212 24.075 24.3754 24.2507 24.2837 24.4127C24.192 24.5746 24.0529 24.7151 23.8664 24.8343C23.68 24.9535 23.4476 25.0466 23.1695 25.1138C22.8913 25.1811 22.5658 25.2147 22.1929 25.2147C21.5571 25.2147 20.9274 25.1032 20.3038 24.8801C19.6802 24.6571 19.1025 24.3225 18.5706 23.8764ZM13.6395 16.6493H17.4023V14.2422H6.91406V16.6493H10.6586V27.3672H13.6395V16.6493Z" fill="white"/>
</g>
<defs>
<clipPath id="clip0_1_3338">
<rect width="30" height="30" fill="white" transform="translate(0 0.00390625)"/>
</clipPath>
</defs>
</svg>
