<svg width="38" height="38" viewBox="0 0 38 38" fill="none" xmlns="http://www.w3.org/2000/svg">
<g clip-path="url(#clip0_1_3441)">
<path d="M22.4443 -2.99609L41.8887 8.00391V30.0039L22.4443 41.0039L3 30.0039V8.00391L22.4443 -2.99609Z" fill="white"/>
<path d="M32.7939 27.8485L19.554 35.3376V29.5046L27.8032 24.9668L32.7939 27.8485ZM33.6995 27.0283V11.366L28.8545 14.1621V24.229L33.6995 27.0283ZM5.15203 27.8485L18.3919 35.3376V29.5046L10.1427 24.9668L5.15203 27.8485ZM4.24637 27.0283V11.366L9.09137 14.1621V24.229L4.24637 27.0283ZM4.8132 10.3526L18.3919 2.67029V8.31012L9.69304 13.095L9.62653 13.133L4.8132 10.3526ZM33.1327 10.3526L19.554 2.67029V8.31012L28.2529 13.095L28.3194 13.133L33.1327 10.3526Z" fill="#8ED6FB"/>
<path d="M18.3921 28.1777L10.2538 23.7032V14.8365L18.3921 19.5358V28.1777ZM19.5543 28.1777L27.6926 23.7032V14.8365L19.5543 19.5358V28.1777ZM10.8048 13.8105L18.9748 9.31702L27.1448 13.8105L18.9748 18.5288L10.8048 13.8105Z" fill="#1C78C0"/>
</g>
<defs>
<clipPath id="clip0_1_3441">
<rect width="38" height="38" fill="white" transform="translate(0 0.00390625)"/>
</clipPath>
</defs>
</svg>
