<svg width="180" height="28" viewBox="0 0 180 28" fill="none" xmlns="http://www.w3.org/2000/svg">
<path d="M11.9473 19.7404C12.1949 20.3626 12.1164 21.16 11.9956 21.6432C11.7842 22.501 11.2043 23.3768 9.48894 23.3768C7.88229 23.3768 6.9038 22.4466 6.9038 21.0452V18.5505H0V20.5317C0 26.2702 4.51193 28.0039 9.35002 28.0039C14.0009 28.0039 17.8303 26.4213 18.4403 22.1264C18.7544 19.9035 18.5249 18.4478 18.4162 17.9102C17.3289 12.522 7.5682 10.9152 6.83735 7.90102C6.73588 7.45644 6.72743 6.99554 6.81319 6.54794C6.9944 5.72039 7.55612 4.82035 9.16278 4.82035C10.6728 4.82035 11.5486 5.75059 11.5486 7.15199V8.74669H17.9692V6.93453C17.9692 1.32893 12.9378 0.453055 9.3017 0.453055C4.72333 0.453055 0.984531 1.96923 0.302003 6.16739C0.120801 7.31509 0.090601 8.34198 0.362404 9.63465C1.47982 14.8899 10.6184 16.4121 11.9473 19.7404Z" fill="white"/>
<path d="M27.5432 1.27396L22.7716 27.0005H29.7237L33.2451 3.65392H33.39L36.8147 27.0005H43.7306L38.9892 1.26792L27.5432 1.27396ZM66.4111 1.27396L63.24 20.9419H63.089L59.924 1.27396H49.4324L48.8647 27.0005H55.3034L55.4604 3.87138H55.6054L59.8999 27.0005H66.4292L70.7297 3.87742H70.8686L71.0317 27.0005H77.4644L76.8966 1.26792L66.4111 1.27396Z" fill="white"/>
<path d="M95.5844 19.6919C95.8321 20.3141 95.7536 21.1114 95.6328 21.5947C95.4214 22.4524 94.8415 23.3283 93.1261 23.3283C91.5195 23.3283 90.541 22.3981 90.541 20.9967V18.5019H83.6372V20.4832C83.6372 26.2217 88.1491 27.9554 92.9872 27.9554C97.6381 27.9554 101.467 26.3727 102.078 22.0779C102.392 19.855 102.162 18.3993 102.053 17.8616C100.966 12.4735 91.2054 10.8667 90.4745 7.8525C90.3731 7.40792 90.3646 6.94703 90.4504 6.49943C90.6316 5.67188 91.1933 4.77184 92.8 4.77184C94.31 4.77184 95.1858 5.70208 95.1858 7.10348V8.69818H101.606V6.88602C101.606 1.28042 96.575 0.404541 92.9389 0.404541C88.3605 0.404541 84.6217 1.92071 83.9392 6.11887C83.758 7.26657 83.7278 8.29346 83.9996 9.58613C85.117 14.8414 94.2556 16.3636 95.5844 19.6919Z" fill="white"/>
<path d="M117.183 23.1478C118.971 23.1478 119.521 21.9155 119.648 21.2873C119.702 21.0094 119.708 20.6349 119.708 20.3027V1.27504H126.219V19.7167C126.22 20.2809 126.201 20.8451 126.159 21.4081C125.706 26.2103 121.913 27.7688 117.183 27.7688C112.448 27.7688 108.655 26.2103 108.202 21.4081C108.184 21.1544 108.135 20.1879 108.141 19.7167V1.269H114.653V20.2966C114.646 20.6349 114.659 21.0094 114.713 21.2873C114.834 21.9155 115.389 23.1478 117.183 23.1478ZM148.64 1.27504L148.99 21.4685H148.851L142.932 1.27504H133.389V26.7298H139.713L139.362 5.83563H139.501L145.849 26.7298H155.012V1.27504H148.64ZM170.837 22.882C172.698 22.882 173.35 21.7041 173.465 21.0094C173.519 20.7255 173.525 20.3631 173.525 20.0429V16.2978H170.886V12.5527H180V19.451C180 19.9342 179.988 20.2846 179.909 21.1423C179.487 25.8298 175.422 27.503 170.861 27.503C166.301 27.503 162.242 25.8298 161.813 21.1423C161.741 20.2846 161.723 19.9342 161.723 19.451V8.62636C161.723 8.16728 161.783 7.35785 161.831 6.93501C162.405 2.12071 166.301 0.574342 170.861 0.574342C175.422 0.574342 179.42 2.10863 179.891 6.92897C179.976 7.75048 179.952 8.62031 179.952 8.62031V9.48411H173.465V8.04042C173.465 8.04042 173.465 7.43637 173.386 7.06186C173.265 6.49405 172.782 5.1893 170.813 5.1893C168.941 5.1893 168.391 6.42761 168.252 7.06186C168.174 7.40013 168.143 7.85921 168.143 8.276V20.0369C168.143 20.3631 168.155 20.7255 168.204 21.0155C168.325 21.7041 168.977 22.882 170.837 22.882Z" fill="white"/>
</svg>
