<svg width="148" height="24" viewBox="0 0 148 24" fill="none" xmlns="http://www.w3.org/2000/svg">
<path d="M10.2252 16.5174C10.4272 17.0249 10.3632 17.6752 10.2647 18.0694C10.0922 18.769 9.6193 19.4833 8.2202 19.4833C6.90978 19.4833 6.1117 18.7246 6.1117 17.5816V15.5469H0.480835V17.1628C0.480835 21.8433 4.16085 23.2572 8.10689 23.2572C11.9002 23.2572 15.0236 21.9664 15.5211 18.4635C15.7773 16.6505 15.5901 15.4631 15.5014 15.0246C14.6147 10.6299 6.65361 9.31943 6.05751 6.86097C5.97475 6.49836 5.96785 6.12245 6.03781 5.75738C6.1856 5.08241 6.64375 4.34832 7.95417 4.34832C9.18577 4.34832 9.9001 5.10705 9.9001 6.25006V7.55072H15.1369V6.07269C15.1369 1.50065 11.0332 0.786273 8.06748 0.786273C4.33327 0.786273 1.28384 2.02289 0.727155 5.44699C0.579363 6.38308 0.554731 7.22063 0.776419 8.27496C1.6878 12.5612 9.14144 13.8028 10.2252 16.5174Z" fill="#034EA2"/>
<path d="M22.9456 1.45582L19.0538 22.4389H24.7241L27.5961 3.39696H27.7144L30.5077 22.4389H36.1484L32.2812 1.45089L22.9456 1.45582ZM54.647 1.45582L52.0606 17.4974H51.9375L49.356 1.45582H40.7989L40.3358 22.4389H45.5873L45.7154 3.57433H45.8337L49.3363 22.4389H54.6618L58.1693 3.57925H58.2827L58.4157 22.4389H63.6623L63.1992 1.45089L54.647 1.45582Z" fill="#034EA2"/>
<path d="M78.4413 16.4779C78.6433 16.9853 78.5793 17.6357 78.4808 18.0298C78.3083 18.7294 77.8354 19.4438 76.4363 19.4438C75.1259 19.4438 74.3278 18.6851 74.3278 17.542V15.5073H68.6969V17.1233C68.6969 21.8037 72.3769 23.2177 76.323 23.2177C80.1163 23.2177 83.2396 21.9269 83.7372 18.4239C83.9934 16.6109 83.8062 15.4235 83.7175 14.9851C82.8308 10.5904 74.8697 9.27986 74.2736 6.8214C74.1908 6.4588 74.1839 6.08288 74.2539 5.71781C74.4017 5.04284 74.8598 4.30875 76.1703 4.30875C77.4019 4.30875 78.1162 5.06748 78.1162 6.21049V7.51115H83.353V6.03312C83.353 1.46109 79.2493 0.746704 76.2836 0.746704C72.5494 0.746704 69.4999 1.98332 68.9433 5.40742C68.7955 6.34351 68.7708 7.18106 68.9925 8.23539C69.9039 12.5217 77.3575 13.7632 78.4413 16.4779Z" fill="#034EA2"/>
<path d="M96.0578 19.2965C97.516 19.2965 97.9643 18.2915 98.0678 17.7791C98.1121 17.5524 98.117 17.247 98.117 16.976V1.4567H103.428V16.4981C103.429 16.9583 103.412 17.4184 103.378 17.8776C103.009 21.7944 99.9152 23.0655 96.0578 23.0655C92.1955 23.0655 89.1017 21.7944 88.7322 17.8776C88.7175 17.6707 88.6781 16.8824 88.683 16.4981V1.45177H93.9936V16.9711C93.9887 17.247 93.9986 17.5524 94.0429 17.7791C94.1414 18.2915 94.5947 19.2965 96.0578 19.2965ZM121.714 1.4567L122 17.9269H121.887L117.059 1.4567H109.275V22.2181H114.433L114.148 5.17641H114.261L119.438 22.2181H126.912V1.4567H121.714ZM139.819 19.0797C141.336 19.0797 141.868 18.119 141.962 17.5524C142.006 17.3209 142.011 17.0253 142.011 16.7642V13.7096H139.858V10.655H147.292V16.2813C147.292 16.6755 147.282 16.9612 147.218 17.6608C146.874 21.484 143.558 22.8487 139.839 22.8487C136.119 22.8487 132.809 21.484 132.459 17.6608C132.4 16.9612 132.385 16.6755 132.385 16.2813V7.45257C132.385 7.07814 132.434 6.41795 132.474 6.07308C132.942 2.14645 136.119 0.885197 139.839 0.885197C143.558 0.885197 146.819 2.1366 147.204 6.06815C147.273 6.73819 147.253 7.44765 147.253 7.44765V8.15217H141.962V6.97468C141.962 6.97468 141.962 6.482 141.898 6.17654C141.799 5.71343 141.405 4.64924 139.799 4.64924C138.272 4.64924 137.824 5.65923 137.71 6.17654C137.646 6.45244 137.622 6.82687 137.622 7.16682V16.7592C137.622 17.0253 137.632 17.3209 137.671 17.5574C137.77 18.119 138.302 19.0797 139.819 19.0797Z" fill="#034EA2"/>
</svg>
