<svg width="157" height="38" viewBox="0 0 157 38" fill="none" xmlns="http://www.w3.org/2000/svg">
<path d="M10.0295 0.707764L0.235291 19.0021L10.0295 37.2962H12.7395L22.6402 19.0021L16.3324 7.21967L14.9079 9.88028L19.7915 19.0021L11.3683 34.7352L2.94529 19.0021L12.7395 0.707764H10.0295ZM15.6415 0.707764L5.74061 19.0021L12.0486 30.7844L13.473 28.1238L8.58946 19.0021L17.0127 3.26895L25.4357 19.0021L15.6414 37.2962H18.3515L28.1457 19.0021L18.3515 0.707764H15.6415Z" fill="black"/>
<path fill-rule="evenodd" clip-rule="evenodd" d="M57.9311 11.5652V26.161H70.6461V23.2182H61.711V20.2625H69.5382V17.3586H61.711V14.4691H70.4615V11.5652H57.9311Z" fill="black"/>
<path fill-rule="evenodd" clip-rule="evenodd" d="M39.1691 11.5652V26.161H42.9491V21.5898H47.4993L50.1385 26.161H54.4979L51.3325 20.7918C52.8695 19.9433 53.9763 18.3978 53.9763 16.4964C53.9763 12.5922 51.0169 11.5652 48.6123 11.5652H39.1691ZM42.9491 14.4691H48.3098C49.0019 14.4691 49.7723 15.0072 49.7723 16.6707C49.7723 17.2348 49.6076 18.6858 48.3098 18.6858H42.9491V14.4691Z" fill="black"/>
<path d="M74.0798 11.5652V26.161H77.8598V16.7593L86.2161 26.161H89.996V11.5652H86.2161V20.8902L77.8598 11.5652H74.0798Z" fill="black"/>
<path d="M98.5812 11.5652L92.1494 26.161H96.4836L97.4643 23.676H104.816L105.797 26.161H110.131L103.699 11.5652H98.5812ZM101.14 14.3613L103.67 20.7721H98.6103L101.14 14.3613Z" fill="black"/>
<path d="M131.042 11.5652V26.161H143.151V23.2182H134.821V11.5652H131.042Z" fill="black"/>
<path d="M141.299 11.5652V14.4691H146.979V26.161H150.759V14.4691H156.44V11.5652H141.299Z" fill="black"/>
<path d="M111.906 11.5652V21.4293C111.906 25.5627 116.099 26.4388 119.424 26.4388C122.749 26.4388 126.942 25.5627 126.942 21.4293V11.5652H123.162V21.2447C123.162 22.7475 120.889 23.2521 119.424 23.2521C117.958 23.2521 115.686 22.7475 115.686 21.2447V11.5652H111.906Z" fill="black"/>
</svg>
