<svg width="157" height="37" viewBox="0 0 157 37" fill="none" xmlns="http://www.w3.org/2000/svg">
<path d="M9.7942 0.415527L0 18.7098L9.7942 37.004H12.5042L22.4049 18.7098L16.0971 6.92744L14.6726 9.58805L19.5562 18.7098L11.133 34.4429L2.71 18.7098L12.5042 0.415527H9.7942ZM15.4062 0.415527L5.50532 18.7098L11.8133 30.4922L13.2378 27.8316L8.35417 18.7098L16.7774 2.97672L25.2004 18.7098L15.4061 37.004H18.1162L27.9104 18.7098L18.1162 0.415527H15.4062Z" fill="white"/>
<path fill-rule="evenodd" clip-rule="evenodd" d="M57.6958 11.2729V25.8688H70.4109V22.926H61.4757V19.9703H69.3029V17.0664H61.4757V14.1768H70.2262V11.2729H57.6958Z" fill="white"/>
<path fill-rule="evenodd" clip-rule="evenodd" d="M38.9339 11.2729V25.8688H42.7138V21.2975H47.264L49.9033 25.8688H54.2626L51.0972 20.4996C52.6342 19.6511 53.741 18.1056 53.741 16.2041C53.741 12.2999 50.7816 11.2729 48.377 11.2729H38.9339ZM42.7138 14.1768H48.0745C48.7667 14.1768 49.537 14.7149 49.537 16.3785C49.537 16.9425 49.3724 18.3936 48.0745 18.3936H42.7138V14.1768Z" fill="white"/>
<path d="M73.8446 11.2729V25.8688H77.6245V16.4671L85.9809 25.8688H89.7607V11.2729H85.9809V20.598L77.6245 11.2729H73.8446Z" fill="white"/>
<path d="M98.3459 11.2729L91.9141 25.8688H96.2483L97.229 23.3837H104.581L105.561 25.8688H109.896L103.464 11.2729H98.3459ZM100.905 14.069L103.435 20.4798H98.375L100.905 14.069Z" fill="white"/>
<path d="M130.806 11.2729V25.8688H142.915V22.926H134.586V11.2729H130.806Z" fill="white"/>
<path d="M141.063 11.2729V14.1768H146.744V25.8688H150.524V14.1768H156.205V11.2729H141.063Z" fill="white"/>
<path d="M111.671 11.2729V21.1371C111.671 25.2705 115.864 26.1466 119.189 26.1466C122.514 26.1466 126.706 25.2705 126.706 21.1371V11.2729H122.926V20.9525C122.926 22.4552 120.654 22.9599 119.189 22.9599C117.723 22.9599 115.451 22.4552 115.451 20.9525V11.2729H111.671Z" fill="white"/>
</svg>
