<svg width="157" height="38" viewBox="0 0 157 38" fill="none" xmlns="http://www.w3.org/2000/svg">
<mask id="mask0_1_3139" style="mask-type:luminance" maskUnits="userSpaceOnUse" x="-1" y="0" width="40" height="39">
<path d="M21.715 0.945676C22.8152 0.87671 24.8298 0.842228 27.7586 0.842228C27.7586 0.842228 30.6475 1.99941 33.3864 1.63903C33.9326 1.45784 36.9611 3.30638 36.9611 3.30638C37.667 4.40049 38.0199 6.66 38.0199 10.0849L38.2115 38.004H29.3597L29.3848 8.91156C29.3848 7.62193 29.1765 6.68114 28.76 6.08919C28.3434 5.49723 27.7816 5.20125 27.0746 5.20125C26.3424 5.20125 25.7427 5.49723 25.2756 6.08919C24.8086 6.68114 24.5751 7.64308 24.5751 8.97498L24.6175 38.004H16.0818L15.9779 25.7825C14.9428 26.1419 13.7561 26.3216 12.418 26.3216C9.79211 26.3216 7.53866 25.7455 5.65759 24.5933C3.77663 23.4411 2.36272 21.8608 1.41587 19.8524C0.469028 17.8439 -0.00439453 15.5607 -0.00439453 13.0026C-0.00439453 9.8524 0.59526 7.16211 1.79457 4.93169C3.3188 2.98238 4.92257 1.61922 6.60587 0.842228C6.60587 0.842228 12.6903 -0.999843 13.3665 0.764486C14.0428 2.52897 17.9249 0.86809 17.9249 0.86809C17.9249 0.86809 21.8369 1.35039 21.715 0.945676C21.5931 0.540963 27.7586 0.842228 27.7586 0.842228L21.715 0.945676ZM15.9779 9.83121V8.84813C15.9779 7.43166 15.7633 6.46973 15.3341 5.96234C14.9049 5.45494 14.2106 5.20125 13.2511 5.20125C12.0392 5.20125 11.0229 5.60822 10.2023 6.42216C9.38175 7.2361 8.83264 8.52044 8.55493 10.2752C10.0698 9.66208 11.5847 9.35553 13.0996 9.35553C14.1853 9.35553 15.1447 9.51409 15.9779 9.83121ZM8.36543 15.8884C8.51701 18.9961 9.79206 20.55 12.1906 20.55C13.1248 20.55 13.9139 20.328 14.5577 19.8841C15.2015 19.4401 15.5234 18.753 15.5234 17.8228C15.5234 16.9137 15.2205 16.2055 14.6146 15.6981C14.0085 15.1907 13.2005 14.937 12.1906 14.937C11.0292 14.937 9.75419 15.2541 8.36543 15.8884Z" fill="white"/>
</mask>
<g mask="url(#mask0_1_3139)">
<path d="M-13.755 3.6499C-16.7096 9.21875 -18.399 15.6389 -18.399 22.4785C-18.399 43.731 -2.1227 60.9819 17.9286 60.9819C37.9798 60.9819 54.2507 43.731 54.2507 22.4785C54.2507 15.6389 52.567 9.2186 49.6123 3.6499H-13.755Z" fill="#375493"/>
<path d="M-3.0224 0.460205C-3.78102 1.52548 -4.47884 2.6351 -5.1217 3.78135H58.2456C57.6027 2.6351 56.8997 1.52548 56.1407 0.460205H-3.0224Z" fill="#D6DDE3"/>
<path d="M38.2116 -11.7799C37.2108 -11.5164 35.9924 -10.734 35.3895 -10.4809C34.8655 -10.4328 33.8934 -10.4677 33.1684 -10.3073C31.6102 -9.96278 30.1917 -9.14288 29.373 -7.85516C28.3157 -10.5 26.0469 -7.24739 23.3568 -5.37484C21.8665 -6.34129 18.8645 -8.26957 16.112 -9.51234C13.8983 -8.54574 11.5782 -5.2814 10.2 -5.00538C8.76818 -4.77524 6.74954 -4.91132 5.90794 -4.03678C4.51184 -2.79416 4.07972 -1.36835 3.8111 -0.0336723C7.08698 0.963871 10.5234 0.99389 13.7993 0.610267C15.6609 0.226797 16.9858 0.766826 18.9011 0.705403C24.7146 0.920153 31.0114 0.30931 36.343 1.34919C36.3192 -0.521052 36.3133 -9.16951 38.2116 -11.7799Z" fill="#D6DDE3"/>
<path d="M21.4922 3.6499C22.5348 17.5875 31.8457 19.2995 37.7071 16.4824C34.7763 13.5682 35.8394 7.629 38.9657 7.56357C44.7479 7.42194 43.1016 18.2821 43.1029 23.5538C46.2642 22.9073 46.0572 10.8799 45.3858 3.6499H21.4922Z" fill="#294584"/>
<path d="M-8.26483 3.6499C-6.37273 7.83497 -5.323 10.1449 1.16796 9.21506C3.41967 8.87208 4.79807 8.61515 4.78175 11.0794C5.08502 12.5713 6.18062 13.0698 8.98591 12.5519C10.0604 12.1029 11.0463 11.4819 11.8591 11.9976C11.8706 12.0014 11.8829 12.0042 11.8925 12.0088C11.8953 12.0102 11.9008 12.0125 11.9036 12.0143C11.9111 12.0191 11.9205 12.0268 11.9257 12.0311C11.9305 12.0354 11.9391 12.0442 11.9425 12.0479C11.9431 12.0488 11.9465 12.0521 11.9481 12.0536C11.9491 12.0554 11.9527 12.0628 11.9536 12.0647C11.9573 12.0707 11.9621 12.0804 11.9647 12.087C11.9662 12.0912 11.969 12.0996 11.9702 12.1039C11.9715 12.1076 11.9747 12.1167 11.9758 12.1207C11.9759 12.1218 11.9758 12.125 11.9758 12.1263C11.9759 12.1347 11.9758 12.1469 11.9758 12.1543C11.9705 12.5053 11.2775 13.325 12.1094 14.321C14.1936 16.4493 16.1893 18.318 18.2738 20.4462C18.7689 22.9222 20.8371 22.5875 22.4664 22.0811C24.9384 21.3546 23.8315 22.4733 24.7328 23.6768C25.4352 24.7727 27.1859 28.322 29.1097 24.2423C30.3132 21.2881 32.2121 19.9999 33.503 20.116C34.7967 20.0566 35.7841 18.6462 35.5466 17.2718C29.7967 18.7425 22.414 15.9717 21.4922 3.6499H-8.26483Z" fill="#4D8AC0"/>
<path d="M37.082 28.6176C35.2114 28.7403 36.1863 35.0291 36.3915 38.0068C36.6688 40.9382 37.3184 40.2476 39.3539 38.9697C40.2898 40.8784 39.7207 41.945 38.3963 43.18C37.4102 44.1171 36.8444 45.5167 37.7001 47.1274C37.9619 47.566 38.1817 47.752 38.4853 48.4432C38.6888 48.8523 38.8888 49.2654 39.0923 49.6747C39.3271 50.5799 39.0621 51.1445 38.6691 51.6287C38.3052 52.1528 38.2348 52.6815 38.7081 54.1313C38.9662 54.9737 38.2586 55.9792 39.3539 56.8636C39.8394 57.2426 40.3149 57.5263 40.8015 57.7368C40.3791 56.5008 40.3668 54.7167 40.5734 53.185C40.7129 51.7401 40.8097 50.8416 42.1213 49.8594C43.2655 49.2701 42.9481 46.1574 43.0457 44.3053C43.0569 44.3152 43.0729 44.324 43.0846 44.3334C43.0833 44.3249 43.0862 44.3135 43.0846 44.3053C45.5325 43.7856 44.1696 41.8172 43.4188 39.9271L37.433 28.6622C37.3147 28.6293 37.2057 28.6134 37.1045 28.6174C37.0969 28.6179 37.0895 28.6171 37.082 28.6176Z" fill="#4D8AC0"/>
<path d="M13.6328 26.8854L19.6187 38.1502C20.3695 40.0403 21.7322 42.0088 19.2845 42.5285C19.5028 43.8473 21.125 44.9951 22.9263 44.8409C24.7998 44.7196 26.1623 46.128 26.7795 47.5507C26.8607 45.9817 27.0513 44.4251 27.4308 42.8867C27.6728 42.1266 29.0438 41.4529 27.9043 40.4403C23.2894 35.3312 18.8414 31.3149 13.8499 26.9639C13.774 26.9306 13.7024 26.9049 13.6328 26.8854Z" fill="#4D8AC0"/>
<path opacity="0.5" d="M25.5508 23.0455C25.4532 24.8975 25.7706 28.0103 24.6264 28.5995C23.3148 29.5816 23.218 30.4802 23.0785 31.9251C22.8716 33.4589 22.8827 35.2462 23.3066 36.4825C23.7397 36.6686 24.1832 36.7946 24.6541 36.8744C25.4466 36.9457 25.9454 37.1426 27.6167 36.8352C29.0799 36.6654 29.9586 35.9469 31.6314 35.6929C32.5444 35.5127 33.1623 35.1625 33.1124 33.7611C33.043 31.8481 32.9865 29.9486 33.0847 28.0673C32.4676 26.6445 31.105 25.236 29.2316 25.3574C27.4514 25.5098 25.8433 24.3891 25.5955 23.0899C25.595 23.0873 25.5959 23.0866 25.5955 23.0843C25.5944 23.0834 25.5964 23.0796 25.5955 23.0788C25.5818 23.0671 25.5642 23.058 25.5508 23.0455Z" fill="#236798"/>
<path d="M41.7445 33.4861C41.5908 33.9147 41.3915 34.2977 41.2209 34.8522C41.2282 39.9021 40.5385 41.3565 36.5323 45.266C36.4963 45.2751 35.3508 47.976 34.3774 48.6814C32.7355 49.902 32.8382 51.0087 32.2282 52.3429C31.7869 53.0176 31.1773 53.1262 30.7359 53.0036C30.4604 52.785 30.1817 52.6811 29.9063 52.3486C29.8888 52.8943 29.9267 53.3911 30.0677 53.8269C30.074 53.8395 30.078 53.8532 30.0843 53.8662C30.0851 53.8678 30.0837 53.8698 30.0843 53.8717C30.1616 54.0298 30.2341 54.1893 30.307 54.3475C30.3109 54.354 30.3141 54.3582 30.3183 54.3643C30.3189 54.366 30.3175 54.3685 30.3183 54.3698C30.3845 54.4738 30.4608 54.574 30.5464 54.6668C30.5203 54.6597 30.495 54.6528 30.4687 54.6443C32.1504 57.3483 34.5254 58.1939 37.5737 57.13C39.2151 56.4104 40.1746 55.7515 41.1931 54.9745C42.079 54.1297 43.1332 52.5433 41.4715 52.4383C41.2349 52.3752 41.1032 52.3136 41.0371 52.2479C41.0346 52.2454 41.0283 52.2391 41.0262 52.2368C41.0197 52.2294 41.0142 52.2165 41.0094 52.2088C41.0026 52.1974 40.9962 52.1819 40.9928 52.1696C40.9922 52.1669 40.9879 52.1612 40.9872 52.1585C40.9865 52.1546 40.9877 52.146 40.9872 52.1417C40.9869 52.1375 40.9872 52.1291 40.9872 52.1248C40.9905 51.8838 41.4464 51.5404 41.0985 50.8426C40.8605 49.7754 41.8719 48.7668 42.5962 48.4968C42.0982 47.4014 41.5965 46.3056 41.0985 45.2103C41.1329 44.4909 42.5401 44.1113 42.3122 42.7691C42.7185 39.3928 43.269 34.3816 41.7445 33.4861Z" fill="#608AB4"/>
<path opacity="0.06" d="M15.1878 -11.1602C15.125 -9.30777 15.3662 -6.19599 14.5448 -5.60331C13.6044 -4.61731 13.5385 -3.71845 13.4438 -2.27309C13.3011 -0.738747 13.3164 1.04852 13.6267 2.28344C13.9392 2.46833 14.2589 2.59302 14.5984 2.67153C15.1692 2.74034 15.5291 2.93585 16.7311 2.62335C17.7839 2.44924 18.4137 1.72817 19.6169 1.46909C20.2736 1.28605 20.7171 0.933986 20.6754 -0.46704C20.6177 -2.37992 20.5693 -4.27926 20.6323 -6.16089C20.1823 -7.58177 19.1956 -8.98619 17.8472 -8.85919C16.5661 -8.7014 15.404 -9.81732 15.2202 -11.1158C15.2198 -11.1184 15.2205 -11.1191 15.2202 -11.1214C15.2194 -11.1223 15.2208 -11.1261 15.2202 -11.1269C15.2101 -11.1385 15.1975 -11.1475 15.1878 -11.1602Z" fill="black"/>
</g>
<path d="M60.0466 12.7254L61.0406 13.661L60.0466 14.6547C60.6444 15.22 60.9432 15.9346 60.9432 16.7984C60.9432 17.7403 60.6412 18.4939 60.0371 19.0592C59.4328 19.6242 58.624 19.9068 57.6106 19.9068C56.474 19.9068 55.5841 19.5885 54.941 18.9519C54.2979 18.3154 53.9764 17.4319 53.9764 16.3016C53.9764 16.0156 54.0056 15.7461 54.064 15.4928C53.0635 14.486 52.5632 13.2194 52.5632 11.6928C52.5632 10.6858 52.7988 9.77473 53.2698 8.95959C53.7408 8.14423 54.4115 7.5141 55.2819 7.06921C56.1523 6.6241 57.1755 6.40155 58.3514 6.40155C59.5792 6.40155 60.6363 6.64192 61.523 7.12266C62.4096 7.6034 63.0836 8.30015 63.5449 9.21292C64.006 10.1255 64.2366 11.1892 64.2366 12.4041C64.2366 13.8917 63.8436 15.4376 63.0575 17.0419L65.0747 19.7119L63.876 20.5501L61.5764 17.276C62.0506 16.3729 62.3835 15.5592 62.5752 14.835C62.7669 14.1107 62.8627 13.3361 62.8627 12.511C62.8627 11.0106 62.4778 9.83323 61.708 8.97886C60.9382 8.12472 59.8388 7.69765 58.4099 7.69765C57.4874 7.69765 56.6867 7.86496 56.0078 8.19958C55.3291 8.53398 54.8077 9.01461 54.4438 9.64146C54.0801 10.2683 53.8982 10.978 53.8982 11.7706C53.8982 12.719 54.1386 13.5277 54.6193 14.1967C54.9312 13.6966 55.4021 13.2062 56.0321 12.7254L56.8506 13.7486C56.266 14.1513 55.8535 14.5573 55.6134 14.9666C55.373 15.3758 55.2528 15.8403 55.2528 16.3601C55.2528 17.1006 55.459 17.6754 55.8715 18.0847C56.2839 18.494 56.8701 18.6986 57.6303 18.6986C58.2927 18.6986 58.7978 18.5249 59.1455 18.1774C59.493 17.8297 59.6668 17.3895 59.6668 16.8569C59.6668 16.2984 59.5043 15.8534 59.1794 15.5219L58.0297 16.6817L57.0553 15.756L60.0466 12.7254Z" fill="black"/>
<path d="M70.5994 18.8349C70.1836 19.5495 69.599 19.9068 68.8457 19.9068C68.1699 19.9068 67.6485 19.6275 67.2817 19.069C66.9146 18.5102 66.731 17.7079 66.731 16.6621C66.731 16.123 66.7863 15.6488 66.8968 15.2395C66.1628 14.2652 65.7958 13.1219 65.7958 11.8095C65.7958 10.8027 66.0297 9.88194 66.4973 9.04718C66.965 8.21243 67.6454 7.5628 68.5385 7.0983C69.4317 6.6338 70.4792 6.40155 71.681 6.40155C73.5323 6.40155 74.9696 6.94396 75.9928 8.02877C77.0158 9.11382 77.5274 10.5723 77.5274 12.4041C77.5274 13.8917 77.1343 15.4376 76.3483 17.0419L78.3655 19.7119L77.1475 20.5501L74.877 17.276C75.3383 16.386 75.6664 15.5756 75.8612 14.8448C76.0561 14.114 76.1535 13.3361 76.1535 12.511C76.1535 11.0041 75.7637 9.82512 74.9842 8.97413C74.2047 8.12315 73.0971 7.69765 71.6614 7.69765C70.7261 7.69765 69.9158 7.87139 69.2306 8.21886C68.5451 8.56657 68.0238 9.06027 67.6666 9.69998C67.3092 10.3399 67.1305 11.0561 67.1305 11.8484C67.1305 12.6541 67.2864 13.3524 67.5983 13.9434C67.9685 13.5991 68.3973 13.4269 68.8846 13.4269C69.2158 13.4269 69.5308 13.5147 69.8296 13.6901C70.1283 13.8655 70.3785 14.1351 70.5801 14.4988C70.9891 13.7842 71.5899 13.4269 72.3825 13.4269C73.0322 13.4269 73.5405 13.703 73.9076 14.2553C74.2745 14.8075 74.4579 15.6098 74.4579 16.6621C74.4579 17.7275 74.2761 18.5347 73.9124 19.0835C73.5486 19.6323 73.0257 19.9068 72.3436 19.9068C72.0059 19.9068 71.6843 19.8207 71.379 19.6487C71.0737 19.4764 70.8138 19.2052 70.5994 18.8349ZM69.0111 14.5867C68.329 14.5867 67.9879 15.2493 67.9879 16.5745C67.9879 17.3215 68.0708 17.8721 68.2365 18.2261C68.4022 18.5801 68.6604 18.7571 69.0111 18.7571C69.3488 18.7571 69.5957 18.5784 69.7518 18.221C69.9076 17.8638 69.9855 17.3247 69.9855 16.6036C69.9855 15.9411 69.9011 15.4393 69.7322 15.0981C69.5633 14.7572 69.3229 14.5867 69.0111 14.5867ZM72.1975 14.5867C71.5479 14.5867 71.2231 15.259 71.2231 16.6036C71.2231 17.2922 71.2946 17.8233 71.4375 18.1967C71.5803 18.5703 71.84 18.7571 72.2168 18.7571C72.873 18.7571 73.2011 18.0296 73.2011 16.5745C73.2011 15.9314 73.1133 15.4393 72.9379 15.0981C72.7625 14.7572 72.5157 14.5867 72.1975 14.5867Z" fill="black"/>
<path d="M88.6646 14.606C89.1713 13.8721 89.4246 13.0211 89.4246 12.053C89.4246 11.2151 89.2362 10.46 88.8594 9.78758C88.4829 9.1154 87.9536 8.59903 87.2715 8.23848C86.5894 7.87792 85.8098 7.69765 84.9329 7.69765C83.978 7.69765 83.1562 7.89573 82.4676 8.29191C81.7789 8.68832 81.2657 9.20638 80.9279 9.84608C80.5902 10.486 80.4213 11.16 80.4213 11.868C80.4213 12.5242 80.5187 13.1056 80.7135 13.6123C81.1748 13.0211 81.7887 12.7254 82.5552 12.7254C82.9579 12.7254 83.3103 12.8066 83.6125 12.969C83.9146 13.1315 84.1403 13.3622 84.2896 13.661C84.7054 13.0373 85.2706 12.7254 85.9852 12.7254C86.6413 12.7254 87.1627 12.9252 87.5491 13.3248C87.9356 13.7243 88.1289 14.2977 88.1289 15.0447V19.7119H86.8037V15.2784C86.8037 14.3494 86.4854 13.8849 85.8489 13.8849C85.2382 13.8849 84.9329 14.3494 84.9329 15.2784V19.7119H83.6172V17.734C83.3381 18.0652 82.9386 18.2308 82.4189 18.2308C81.7043 18.2308 81.1327 17.9791 80.704 17.4756C80.2752 16.9723 80.0607 16.2886 80.0607 15.4245C80.0607 15.2428 80.0672 15.1129 80.0803 15.0349C79.4176 14.1904 79.0863 13.1283 79.0863 11.8484C79.0863 10.8547 79.3266 9.93877 79.8074 9.10063C80.2881 8.26272 80.9718 7.6034 81.8584 7.12266C82.7453 6.64192 83.7635 6.40155 84.9133 6.40155C86.0696 6.40155 87.0943 6.6338 87.9875 7.0983C88.8806 7.5628 89.5724 8.22382 90.0629 9.08135C90.5533 9.93888 90.7985 10.9132 90.7985 12.0043C90.7985 13.1737 90.4803 14.2326 89.8437 15.181L88.6646 14.606ZM82.4967 13.8849C82.1264 13.8849 81.8373 14.0246 81.6294 14.304C81.4218 14.5833 81.3179 14.9569 81.3179 15.4245C81.3179 16.529 81.7174 17.0812 82.5163 17.0812C82.8931 17.0812 83.1837 16.9382 83.3882 16.6523C83.593 16.3666 83.6953 15.9769 83.6953 15.483C83.6953 14.4176 83.2958 13.8849 82.4967 13.8849Z" fill="black"/>
<path d="M79.2618 4.88154C80.2427 4.04363 81.1845 3.44282 82.0874 3.07911C82.9905 2.71517 83.9421 2.53321 84.9424 2.53321C85.9363 2.53321 86.8718 2.70706 87.7487 3.05476C88.6256 3.40223 89.5806 4.01116 90.6135 4.88154L89.7172 5.82689C88.8662 5.0927 88.0688 4.57296 87.3249 4.26765C86.5812 3.96234 85.7806 3.80969 84.9231 3.80969C84.0656 3.80969 83.2519 3.96887 82.4821 4.28726C81.7123 4.60565 80.9376 5.11886 80.1581 5.82689L79.2618 4.88154Z" fill="black"/>
<path d="M101.917 19.7119L101.926 18.4645C101.465 18.9584 100.973 19.3222 100.45 19.556C99.927 19.7898 99.3311 19.9068 98.6621 19.9068C97.4212 19.9068 96.4272 19.5657 95.6802 18.8836C94.9332 18.2015 94.537 17.2564 94.4917 16.0482C93.7771 15.535 93.2298 14.9082 92.8499 14.1677C92.4697 13.4272 92.2796 12.6022 92.2796 11.6928C92.2796 10.7248 92.5086 9.83154 92.9666 9.01303C93.4245 8.19451 94.0661 7.55468 94.8911 7.09356C95.7162 6.63221 96.6549 6.40155 97.7072 6.40155C99.4545 6.40155 100.861 7.02851 101.926 8.28245L101.917 6.5967H103.252V19.7119H101.917ZM101.917 16.6621V10.1532C101.462 9.36716 100.874 8.76138 100.153 8.33588C99.4319 7.91039 98.636 7.69765 97.7654 7.69765C96.934 7.69765 96.2049 7.87307 95.5781 8.22393C94.9512 8.57456 94.4672 9.05846 94.126 9.67562C93.7851 10.2928 93.6146 10.9716 93.6146 11.7121C93.6146 12.3033 93.7007 12.8198 93.8727 13.2615C94.045 13.7033 94.3259 14.1319 94.7156 14.5475C94.9949 13.7941 95.5049 13.1348 96.2454 12.5695L97.1907 13.4077C96.2683 14.0377 95.807 14.8562 95.807 15.8632C95.807 16.7142 96.0588 17.3881 96.5623 17.8848C97.0656 18.3818 97.746 18.6303 98.6035 18.6303C99.3375 18.6303 99.9742 18.4695 100.514 18.148C101.053 17.8264 101.52 17.3311 101.917 16.6621Z" fill="black"/>
<path d="M107.022 6.5967V19.7119H105.687V6.5967H107.022Z" fill="black"/>
<path d="M125.078 6.5967V19.7119H123.743V6.5967H125.078Z" fill="black"/>
<path d="M128.634 15.5416C127.569 14.5151 127.037 13.2322 127.037 11.6928C127.037 10.7314 127.264 9.83808 127.718 9.01303C128.173 8.18797 128.818 7.54646 129.653 7.08849C130.488 6.63053 131.438 6.40155 132.503 6.40155C133.386 6.40155 134.174 6.55747 134.866 6.86932C135.557 7.18117 136.212 7.68141 136.829 8.37005L136.81 6.5967H138.154V19.7119H136.81V10.2506C136.283 9.40616 135.661 8.7695 134.944 8.34062C134.226 7.91197 133.438 7.69765 132.581 7.69765C131.736 7.69765 130.996 7.86811 130.359 8.20905C129.722 8.55021 129.232 9.02937 128.888 9.64653C128.543 10.2637 128.371 10.9522 128.371 11.7121C128.371 12.2578 128.446 12.7385 128.595 13.1543C128.745 13.5701 128.979 13.9761 129.297 14.3723C129.927 13.6643 130.775 13.3102 131.84 13.3102C132.802 13.3102 133.597 13.6171 134.227 14.2309C134.858 14.8449 135.173 15.6488 135.173 16.6425C135.173 17.604 134.864 18.3884 134.247 18.9959C133.63 19.6031 132.828 19.9068 131.84 19.9068C131.204 19.9068 130.622 19.7671 130.096 19.4877C129.57 19.2085 129.17 18.8091 128.897 18.2893C128.625 17.7696 128.488 17.198 128.488 16.5745C128.488 16.1846 128.537 15.8403 128.634 15.5416ZM131.821 14.5282C131.223 14.5282 130.734 14.723 130.354 15.1127C129.974 15.5025 129.784 15.9995 129.784 16.6036C129.784 17.2273 129.981 17.7324 130.374 18.1189C130.767 18.5054 131.255 18.6986 131.84 18.6986C132.431 18.6986 132.919 18.5054 133.302 18.1189C133.685 17.7324 133.877 17.2403 133.877 16.6425C133.877 16.019 133.683 15.5108 133.297 15.1177C132.91 14.7247 132.418 14.5282 131.821 14.5282Z" fill="black"/>
<path d="M141.915 6.5967V19.7119H140.58V6.5967H141.915Z" fill="black"/>
<path d="M145.414 15.7462C144.913 15.246 144.532 14.6598 144.269 13.9874C144.006 13.315 143.874 12.589 143.874 11.8095C143.874 10.7896 144.108 9.86401 144.576 9.03264C145.043 8.20104 145.709 7.55468 146.573 7.09356C147.437 6.63221 148.441 6.40155 149.584 6.40155C150.773 6.40155 151.801 6.63864 152.668 7.11284C153.535 7.58727 154.201 8.28075 154.665 9.1933C155.13 10.1061 155.362 11.1763 155.362 12.4041C155.362 13.8982 154.972 15.4441 154.193 17.0419L156.2 19.7119L155.011 20.5501L152.712 17.276C153.173 16.386 153.501 15.5756 153.696 14.8448C153.891 14.114 153.988 13.3361 153.988 12.511C153.988 11.0169 153.608 9.84124 152.848 8.98394C152.088 8.12641 151.013 7.69765 149.623 7.69765C148.733 7.69765 147.955 7.86981 147.289 8.21413C146.623 8.55844 146.11 9.05215 145.75 9.69524C145.389 10.3383 145.209 11.0561 145.209 11.8484C145.209 12.8879 145.485 13.7746 146.037 14.5086C146.342 14.119 146.721 13.8218 147.172 13.617C147.624 13.4125 148.126 13.3102 148.678 13.3102C149.639 13.3102 150.435 13.6171 151.065 14.2309C151.695 14.8449 152.01 15.6488 152.01 16.6425C152.01 17.604 151.702 18.3884 151.084 18.9959C150.467 19.6031 149.665 19.9068 148.678 19.9068C148.041 19.9068 147.46 19.7671 146.934 19.4877C146.407 19.2085 146.008 18.8091 145.735 18.2893C145.462 17.7696 145.326 17.198 145.326 16.5745C145.326 16.2755 145.355 15.9994 145.414 15.7462ZM148.658 14.5282C148.061 14.5282 147.572 14.723 147.192 15.1127C146.812 15.5025 146.622 15.9995 146.622 16.6036C146.622 17.2273 146.818 17.7324 147.211 18.1189C147.604 18.5054 148.093 18.6986 148.678 18.6986C149.269 18.6986 149.756 18.5054 150.139 18.1189C150.523 17.7324 150.714 17.2403 150.714 16.6425C150.714 16.019 150.521 15.5108 150.134 15.1177C149.748 14.7247 149.256 14.5282 148.658 14.5282Z" fill="black"/>
<path d="M115.217 19.8397C113.899 19.8397 112.765 19.5669 111.817 19.0212C110.868 18.4755 110.147 17.6928 109.653 16.6729C109.16 15.653 108.913 14.4545 108.913 13.0775C108.913 11.6939 109.173 10.4938 109.692 9.47703C110.212 8.46054 110.948 7.68271 111.899 7.14357C112.851 6.60421 113.957 6.33452 115.217 6.33452C117.211 6.33452 118.767 6.93702 119.884 8.14203C121.002 9.34703 121.56 10.9987 121.56 13.0971C121.56 15.2343 121.003 16.8923 119.89 18.0711C118.775 19.2502 117.218 19.8397 115.217 19.8397ZM115.256 7.63062C113.743 7.63062 112.539 8.12591 111.646 9.11647C110.753 10.1073 110.306 11.4406 110.306 13.1164C110.306 14.838 110.74 16.173 111.607 17.1214C112.474 18.0698 113.691 18.544 115.256 18.544C116.776 18.544 117.975 18.0584 118.852 17.0872C119.729 16.116 120.167 14.786 120.167 13.0971C120.167 11.3692 119.735 10.0261 118.871 9.06776C118.007 8.10967 116.802 7.63062 115.256 7.63062Z" fill="black"/>
<path d="M62.613 30.7788C62.613 30.3391 62.6705 29.9451 62.7855 29.5967C62.9005 29.2483 63.0696 28.9523 63.2929 28.7088C63.5161 28.4653 63.7884 28.2793 64.1097 28.1507C64.431 28.0222 64.798 27.9579 65.2106 27.9579C65.6436 27.9579 66.0224 28.029 66.3471 28.171C66.6718 28.3131 66.9424 28.511 67.1589 28.7646C67.3753 29.0183 67.536 29.3159 67.6408 29.6576C67.7457 29.9992 67.7981 30.3729 67.7981 30.7788C67.7981 31.2117 67.7389 31.6007 67.6205 31.9457C67.5022 32.2907 67.333 32.5849 67.1132 32.8285C66.8933 33.072 66.6228 33.258 66.3014 33.3865C65.9801 33.5151 65.6165 33.5793 65.2106 33.5793C64.7642 33.5793 64.3786 33.5083 64.0539 33.3663C63.7292 33.2242 63.4603 33.028 63.2472 32.7777C63.0341 32.5274 62.8752 32.2315 62.7703 31.8899C62.6655 31.5483 62.613 31.1779 62.613 30.7788ZM63.6074 30.7788C63.6074 31.0291 63.6362 31.2743 63.6937 31.5144C63.7512 31.7546 63.8442 31.9694 63.9727 32.1588C64.1012 32.3482 64.267 32.5004 64.4699 32.6154C64.6729 32.7304 64.9231 32.7879 65.2208 32.7879C66.2761 32.7879 66.8037 32.1182 66.8037 30.7788C66.8037 30.515 66.775 30.2613 66.7175 30.0178C66.66 29.7742 66.5686 29.5595 66.4435 29.3734C66.3184 29.1874 66.1543 29.0369 65.9514 28.9219C65.7484 28.8069 65.5049 28.7494 65.2208 28.7494C64.6932 28.7494 64.2923 28.9168 64.0184 29.2517C63.7444 29.5865 63.6074 30.0956 63.6074 30.7788Z" fill="black" fill-opacity="0.892"/>
<path d="M72.0801 28.9929C71.9651 28.9591 71.8535 28.9287 71.7453 28.9016C71.637 28.8745 71.5356 28.861 71.4409 28.861C71.0823 28.861 70.8033 28.9523 70.6037 29.135C70.4042 29.3176 70.2807 29.5476 70.2334 29.825V33.4373H69.2999V28.1101H69.9493L70.1319 28.8204H70.2232C70.3788 28.5566 70.5598 28.352 70.7661 28.2065C70.9724 28.0611 71.2312 27.9884 71.5423 27.9884C71.637 27.9884 71.7486 27.9968 71.8772 28.0138C72.0057 28.0307 72.1342 28.0594 72.2628 28.1L72.0801 28.9929Z" fill="black" fill-opacity="0.892"/>
<path d="M72.1816 32.9198C72.1816 32.7236 72.2442 32.568 72.3693 32.453C72.4944 32.338 72.6585 32.2805 72.8614 32.2805C73.0644 32.2805 73.2284 32.338 73.3536 32.453C73.4787 32.568 73.5413 32.7236 73.5413 32.9198C73.5413 33.1024 73.4787 33.2546 73.3536 33.3764C73.2284 33.4982 73.0644 33.559 72.8614 33.559C72.6585 33.559 72.4944 33.4982 72.3693 33.3764C72.2442 33.2546 72.1816 33.1024 72.1816 32.9198Z" fill="black" fill-opacity="0.892"/>
<path d="M78.8177 28.1101L79.6903 30.1294L80.1266 31.1542L80.4006 32.1791H80.4716L80.705 31.1238L81.6994 28.1101H82.5923L80.6543 33.5489H80.1469L78.6553 30.1091V30.1192L78.3915 29.135L78.0871 30.1294V30.1192L76.6564 33.5489H76.1693L74.1501 28.1101H75.1749L76.3012 31.1238L76.494 32.1892H76.5853L76.8695 31.1035L78.0972 28.1101H78.8177Z" fill="black" fill-opacity="0.892"/>
<path d="M83.7491 28.1101H84.6826V33.4373H83.7491V28.1101ZM83.5563 26.8418C83.5563 26.6862 83.6172 26.5458 83.7389 26.4207C83.8607 26.2955 84.0197 26.233 84.2158 26.233C84.412 26.233 84.5744 26.2955 84.7029 26.4207C84.8314 26.5458 84.8957 26.6862 84.8957 26.8418C84.8957 26.9974 84.8314 27.1343 84.7029 27.2527C84.5744 27.3711 84.412 27.4303 84.2158 27.4303C84.0197 27.4303 83.8607 27.3711 83.7389 27.2527C83.6172 27.1343 83.5563 26.9974 83.5563 26.8418Z" fill="black" fill-opacity="0.892"/>
<path d="M88.2137 31.0426H87.6353V33.4373H86.7018V26.3344H87.6353V30.5353L88.163 30.3628L89.9285 28.1101H91.0244L89.3299 30.17H89.34L88.7819 30.5759L89.4212 31.0325L91.2984 33.4373H90.1213L88.2137 31.0426Z" fill="black" fill-opacity="0.892"/>
<path d="M92.6175 28.1101H93.551V33.4373H92.6175V28.1101ZM92.4247 26.8418C92.4247 26.6862 92.4856 26.5458 92.6073 26.4207C92.7291 26.2955 92.8881 26.233 93.0842 26.233C93.2804 26.233 93.4428 26.2955 93.5713 26.4207C93.6998 26.5458 93.7641 26.6862 93.7641 26.8418C93.7641 26.9974 93.6998 27.1343 93.5713 27.2527C93.4428 27.3711 93.2804 27.4303 93.0842 27.4303C92.8881 27.4303 92.7291 27.3711 92.6073 27.2527C92.4856 27.1343 92.4247 26.9974 92.4247 26.8418Z" fill="black" fill-opacity="0.892"/>
<path d="M98.2592 31.9457C98.2592 31.8104 98.227 31.6971 98.1628 31.6058C98.0985 31.5144 98.0123 31.4367 97.904 31.3724C97.7958 31.3081 97.6707 31.2523 97.5286 31.205C97.3865 31.1576 97.2377 31.1103 97.0821 31.0629C96.886 31.0088 96.6881 30.9496 96.4885 30.8853C96.289 30.8211 96.1097 30.7331 95.9507 30.6215C95.7918 30.5099 95.6616 30.3661 95.5601 30.1903C95.4586 30.0144 95.4079 29.7912 95.4079 29.5206C95.4079 28.9929 95.5652 28.6006 95.8797 28.3435C96.1943 28.0865 96.6357 27.9579 97.2039 27.9579C97.6301 27.9579 97.9886 27.9985 98.2795 28.0797C98.5703 28.1609 98.824 28.2488 99.0405 28.3435L98.8173 29.135C98.6346 29.047 98.4165 28.9608 98.1628 28.8762C97.9091 28.7917 97.6301 28.7494 97.3257 28.7494C96.9942 28.7494 96.7473 28.8035 96.5849 28.9118C96.4226 29.02 96.3414 29.2162 96.3414 29.5003C96.3414 29.6153 96.3718 29.7117 96.4327 29.7895C96.4936 29.8673 96.5748 29.9349 96.6762 29.9924C96.7777 30.0499 96.8961 30.1006 97.0314 30.1446C97.1667 30.1886 97.3087 30.2309 97.4576 30.2714C97.6605 30.3256 97.8634 30.3881 98.0664 30.4592C98.2693 30.5302 98.4553 30.6249 98.6245 30.7433C98.7936 30.8617 98.9306 31.0122 99.0354 31.1948C99.1403 31.3775 99.1927 31.6075 99.1927 31.8848C99.1927 32.3854 99.0236 32.7929 98.6853 33.1075C98.3471 33.4221 97.8398 33.5793 97.1633 33.5793C96.7304 33.5793 96.3532 33.5354 96.0319 33.4474C95.7106 33.3595 95.4417 33.258 95.2252 33.143L95.4891 32.3313C95.6785 32.4327 95.922 32.5342 96.2196 32.6357C96.5173 32.7371 96.8183 32.7879 97.1227 32.7879C97.4542 32.7879 97.7265 32.7287 97.9395 32.6103C98.1526 32.4919 98.2592 32.2704 98.2592 31.9457Z" fill="black" fill-opacity="0.892"/>
<path d="M100.349 30.7788C100.349 30.3391 100.407 29.9451 100.522 29.5967C100.637 29.2483 100.806 28.9523 101.029 28.7088C101.253 28.4653 101.525 28.2793 101.846 28.1507C102.167 28.0222 102.534 27.9579 102.947 27.9579C103.38 27.9579 103.759 28.029 104.084 28.171C104.408 28.3131 104.679 28.511 104.895 28.7646C105.112 29.0183 105.272 29.3159 105.377 29.6576C105.482 29.9992 105.535 30.3729 105.535 30.7788C105.535 31.2117 105.475 31.6007 105.357 31.9457C105.239 32.2907 105.069 32.5849 104.85 32.8285C104.63 33.072 104.359 33.258 104.038 33.3865C103.717 33.5151 103.353 33.5793 102.947 33.5793C102.501 33.5793 102.115 33.5083 101.79 33.3663C101.466 33.2242 101.197 33.028 100.984 32.7777C100.771 32.5274 100.612 32.2315 100.507 31.8899C100.402 31.5483 100.349 31.1779 100.349 30.7788ZM101.344 30.7788C101.344 31.0291 101.373 31.2743 101.43 31.5144C101.488 31.7546 101.581 31.9694 101.709 32.1588C101.838 32.3482 102.003 32.5004 102.206 32.6154C102.409 32.7304 102.66 32.7879 102.957 32.7879C104.012 32.7879 104.54 32.1182 104.54 30.7788C104.54 30.515 104.511 30.2613 104.454 30.0178C104.396 29.7742 104.305 29.5595 104.18 29.3734C104.055 29.1874 103.891 29.0369 103.688 28.9219C103.485 28.8069 103.241 28.7494 102.957 28.7494C102.43 28.7494 102.029 28.9168 101.755 29.2517C101.481 29.5865 101.344 30.0956 101.344 30.7788Z" fill="black" fill-opacity="0.892"/>
<path d="M107.97 28.1101V31.0426C107.97 31.3267 107.987 31.577 108.021 31.7935C108.054 32.01 108.115 32.1909 108.203 32.3363C108.291 32.4818 108.411 32.5934 108.563 32.6712C108.716 32.749 108.91 32.7879 109.147 32.7879C109.553 32.7879 109.884 32.6729 110.141 32.4429C110.398 32.2129 110.594 31.9288 110.73 31.5905V28.1101H111.663V31.9254C111.663 32.1824 111.673 32.4446 111.694 32.7118C111.714 32.979 111.744 33.2208 111.785 33.4373H111.156L110.912 32.5545H110.811C110.635 32.8589 110.392 33.1058 110.08 33.2952C109.769 33.4846 109.38 33.5793 108.913 33.5793C108.602 33.5793 108.33 33.5421 108.097 33.4677C107.863 33.3933 107.667 33.2665 107.508 33.0872C107.349 32.9079 107.231 32.6695 107.153 32.3719C107.075 32.0742 107.036 31.7022 107.036 31.2557V28.1101H107.97Z" fill="black" fill-opacity="0.892"/>
<path d="M116.351 28.9929C116.236 28.9591 116.125 28.9287 116.016 28.9016C115.908 28.8745 115.807 28.861 115.712 28.861C115.353 28.861 115.074 28.9523 114.875 29.135C114.675 29.3176 114.552 29.5476 114.504 29.825V33.4373H113.571V28.1101H114.22L114.403 28.8204H114.494C114.65 28.5566 114.831 28.352 115.037 28.2065C115.243 28.0611 115.502 27.9884 115.813 27.9884C115.908 27.9884 116.02 27.9968 116.148 28.0138C116.277 28.0307 116.405 28.0594 116.534 28.1L116.351 28.9929Z" fill="black" fill-opacity="0.892"/>
<path d="M121.445 33.072C121.208 33.2411 120.931 33.3679 120.613 33.4525C120.295 33.5371 119.96 33.5793 119.608 33.5793C119.162 33.5793 118.781 33.5117 118.467 33.3764C118.152 33.2411 117.897 33.0517 117.701 32.8082C117.504 32.5646 117.362 32.2704 117.275 31.9254C117.187 31.5804 117.143 31.1982 117.143 30.7788C117.143 29.8791 117.361 29.184 117.797 28.6936C118.233 28.2032 118.861 27.9579 119.679 27.9579C120.038 27.9579 120.349 27.9901 120.613 28.0543C120.877 28.1186 121.113 28.1981 121.323 28.2928L121.08 29.0538C120.897 28.9591 120.699 28.8847 120.486 28.8306C120.273 28.7765 120.041 28.7494 119.791 28.7494C118.688 28.7494 118.137 29.4259 118.137 30.7788C118.137 31.0358 118.167 31.2844 118.228 31.5246C118.289 31.7647 118.387 31.9778 118.523 32.1638C118.658 32.3499 118.835 32.5004 119.055 32.6154C119.275 32.7304 119.544 32.7879 119.862 32.7879C120.146 32.7879 120.395 32.749 120.608 32.6712C120.821 32.5934 120.998 32.5004 121.14 32.3921L121.445 33.072Z" fill="black" fill-opacity="0.892"/>
<path d="M126.894 33.001C126.657 33.1768 126.363 33.3172 126.011 33.4221C125.659 33.5269 125.277 33.5793 124.864 33.5793C124.418 33.5793 124.031 33.5134 123.703 33.3815C123.374 33.2496 123.106 33.0618 122.896 32.8183C122.686 32.5748 122.531 32.2805 122.429 31.9355C122.328 31.5905 122.277 31.205 122.277 30.7788C122.277 29.8656 122.502 29.1671 122.952 28.6835C123.402 28.1998 124.043 27.9579 124.875 27.9579C125.138 27.9579 125.402 27.9867 125.666 28.0442C125.93 28.1017 126.167 28.2099 126.376 28.3689C126.586 28.5279 126.757 28.746 126.889 29.0234C127.021 29.3007 127.087 29.6626 127.087 30.1091C127.087 30.2173 127.083 30.3425 127.076 30.4845C127.07 30.6266 127.056 30.7653 127.036 30.9005H123.231C123.244 31.5229 123.393 31.993 123.677 32.311C123.961 32.6289 124.445 32.7879 125.128 32.7879C125.412 32.7879 125.683 32.7388 125.94 32.6408C126.197 32.5427 126.397 32.426 126.539 32.2907L126.894 33.001ZM126.194 30.2309C126.207 29.6897 126.097 29.3075 125.864 29.0843C125.63 28.861 125.304 28.7494 124.885 28.7494C124.411 28.7494 124.036 28.861 123.758 29.0843C123.481 29.3075 123.319 29.6897 123.271 30.2309H126.194Z" fill="black" fill-opacity="0.892"/>
<path d="M128.264 32.9198C128.264 32.7236 128.326 32.568 128.451 32.453C128.576 32.338 128.741 32.2805 128.943 32.2805C129.146 32.2805 129.31 32.338 129.436 32.453C129.561 32.568 129.623 32.7236 129.623 32.9198C129.623 33.1024 129.561 33.2546 129.436 33.3764C129.31 33.4982 129.146 33.559 128.943 33.559C128.741 33.559 128.576 33.4982 128.451 33.3764C128.326 33.2546 128.264 33.1024 128.264 32.9198Z" fill="black" fill-opacity="0.892"/>
<path d="M130.76 30.7788C130.76 30.3391 130.817 29.9451 130.932 29.5967C131.047 29.2483 131.216 28.9523 131.44 28.7088C131.663 28.4653 131.935 28.2793 132.256 28.1507C132.578 28.0222 132.945 27.9579 133.357 27.9579C133.79 27.9579 134.169 28.029 134.494 28.171C134.819 28.3131 135.089 28.511 135.306 28.7646C135.522 29.0183 135.683 29.3159 135.788 29.6576C135.892 29.9992 135.945 30.3729 135.945 30.7788C135.945 31.2117 135.886 31.6007 135.767 31.9457C135.649 32.2907 135.48 32.5849 135.26 32.8285C135.04 33.072 134.769 33.258 134.448 33.3865C134.127 33.5151 133.763 33.5793 133.357 33.5793C132.911 33.5793 132.525 33.5083 132.201 33.3663C131.876 33.2242 131.607 33.028 131.394 32.7777C131.181 32.5274 131.022 32.2315 130.917 31.8899C130.812 31.5483 130.76 31.1779 130.76 30.7788ZM131.754 30.7788C131.754 31.0291 131.783 31.2743 131.84 31.5144C131.898 31.7546 131.991 31.9694 132.119 32.1588C132.248 32.3482 132.414 32.5004 132.617 32.6154C132.82 32.7304 133.07 32.7879 133.368 32.7879C134.423 32.7879 134.95 32.1182 134.95 30.7788C134.95 30.515 134.922 30.2613 134.864 30.0178C134.807 29.7742 134.715 29.5595 134.59 29.3734C134.465 29.1874 134.301 29.0369 134.098 28.9219C133.895 28.8069 133.652 28.7494 133.368 28.7494C132.84 28.7494 132.439 28.9168 132.165 29.2517C131.891 29.5865 131.754 30.0956 131.754 30.7788Z" fill="black" fill-opacity="0.892"/>
<path d="M140.227 28.9929C140.112 28.9591 140 28.9287 139.892 28.9016C139.784 28.8745 139.682 28.861 139.588 28.861C139.229 28.861 138.95 28.9523 138.75 29.135C138.551 29.3176 138.427 29.5476 138.38 29.825V33.4373H137.447V28.1101H138.096L138.279 28.8204H138.37C138.526 28.5566 138.706 28.352 138.913 28.2065C139.119 28.0611 139.378 27.9884 139.689 27.9884C139.784 27.9884 139.895 27.9968 140.024 28.0138C140.152 28.0307 140.281 28.0594 140.409 28.1L140.227 28.9929Z" fill="black" fill-opacity="0.892"/>
<path d="M145.858 33.4677C145.858 34.1645 145.654 34.6837 145.244 35.0253C144.835 35.3669 144.235 35.5377 143.443 35.5377C142.983 35.5377 142.611 35.5106 142.327 35.4565C142.043 35.4024 141.8 35.328 141.597 35.2333L141.82 34.3911C141.908 34.4317 142.009 34.474 142.124 34.5179C142.239 34.5619 142.361 34.6008 142.49 34.6346C142.618 34.6684 142.748 34.6955 142.88 34.7158C143.012 34.7361 143.139 34.7462 143.261 34.7462C143.592 34.7462 143.866 34.7175 144.083 34.66C144.299 34.6025 144.472 34.5129 144.6 34.3911C144.729 34.2693 144.817 34.1137 144.864 33.9243C144.911 33.7349 144.935 33.5083 144.935 33.2445V32.8691H144.823C144.715 33.0449 144.526 33.187 144.255 33.2952C143.985 33.4035 143.657 33.4576 143.271 33.4576C142.5 33.4576 141.932 33.2496 141.566 32.8335C141.201 32.4175 141.018 31.7461 141.018 30.8194C141.018 29.9062 141.255 29.2026 141.729 28.7088C142.202 28.215 142.906 27.9681 143.839 27.9681C144.286 27.9681 144.67 27.9952 144.991 28.0493C145.312 28.1034 145.601 28.1744 145.858 28.2624V33.4677ZM143.474 32.6661C143.886 32.6661 144.21 32.5613 144.443 32.3516C144.676 32.1419 144.837 31.8679 144.925 31.5297V28.9118C144.769 28.8644 144.59 28.8272 144.387 28.8001C144.184 28.7731 143.954 28.7596 143.697 28.7596C143.169 28.7596 142.757 28.927 142.459 29.2618C142.162 29.5967 142.013 30.1091 142.013 30.7991C142.013 31.3944 142.123 31.8544 142.342 32.1791C142.562 32.5038 142.939 32.6661 143.474 32.6661Z" fill="black" fill-opacity="0.892"/>
</svg>
