<svg width="193" height="38" viewBox="0 0 193 38" fill="none" xmlns="http://www.w3.org/2000/svg">
<g clip-path="url(#clip0_1_3136)">
<path d="M10.2553 28.9529C10.4597 28.8694 10.6453 28.7456 10.8008 28.5889L30.266 9.1222C30.5752 8.80539 30.7481 8.38037 30.7481 7.93786C30.7481 7.49533 30.5752 7.07033 30.266 6.75351C30.1102 6.59652 29.9248 6.47191 29.7205 6.38687C29.5163 6.30184 29.2973 6.25806 29.076 6.25806C28.8547 6.25806 28.6357 6.30184 28.4314 6.38687C28.2272 6.47191 28.0417 6.59652 27.8859 6.75351L9.60041 25.0203L3.31898 18.7417C3.16314 18.5847 2.97776 18.4601 2.7735 18.3751C2.56925 18.2901 2.35018 18.2463 2.12892 18.2463C1.90766 18.2463 1.68859 18.2901 1.48435 18.3751C1.28009 18.4601 1.0947 18.5847 0.938865 18.7417C0.780847 18.896 0.655275 19.0801 0.56954 19.2835C0.483804 19.4869 0.439636 19.7053 0.439636 19.9261C0.439636 20.1468 0.483804 20.3653 0.56954 20.5687C0.655275 20.7721 0.780847 20.9562 0.938865 21.1105L8.43105 28.5889C8.58573 28.7438 8.76965 28.8667 8.97217 28.9501C9.17469 29.0336 9.39174 29.076 9.6108 29.075C9.8316 29.078 10.0508 29.0365 10.2553 28.9529Z" fill="black"/>
<path d="M24.3626 22.6533C24.6307 22.8304 24.9456 22.9235 25.267 22.9206C25.4817 22.9234 25.6946 22.8817 25.8924 22.7979C26.0901 22.7143 26.2682 22.5905 26.4157 22.4344L38.3576 10.4876C38.5094 10.3384 38.6299 10.1605 38.7122 9.96422C38.7945 9.76801 38.8368 9.55736 38.8368 9.34464C38.8368 9.13186 38.7945 8.92121 38.7122 8.72499C38.6299 8.52875 38.5094 8.35086 38.3576 8.20166C38.2085 8.05154 38.0312 7.9324 37.8358 7.85109C37.6405 7.76979 37.4309 7.72794 37.2193 7.72794C37.0077 7.72794 36.7981 7.76979 36.6028 7.85109C36.4074 7.9324 36.2301 8.05154 36.081 8.20166L24.1183 20.1589C23.8897 20.3846 23.7335 20.6734 23.67 20.9883C23.6066 21.3032 23.6386 21.6299 23.7619 21.9265C23.8853 22.2231 24.0944 22.4762 24.3626 22.6533Z" fill="black"/>
<path d="M35.2336 31.2579L39.9317 26.5618C40.0842 26.4134 40.2055 26.236 40.2886 26.0401C40.3718 25.8442 40.4151 25.6338 40.4161 25.421C40.417 25.2083 40.3756 24.9975 40.2942 24.8009C40.2128 24.6043 40.0931 24.4258 39.942 24.2759C39.7921 24.1255 39.6139 24.0061 39.4177 23.9247C39.2214 23.8433 39.011 23.8014 38.7985 23.8014C38.5861 23.8014 38.3757 23.8433 38.1795 23.9247C37.9833 24.0061 37.8051 24.1255 37.655 24.2759L32.9466 28.9616C32.6445 29.2674 32.4751 29.6799 32.4751 30.1097C32.4751 30.5395 32.6445 30.952 32.9466 31.2579C33.0944 31.4122 33.2719 31.5348 33.4684 31.6187C33.6649 31.7026 33.8764 31.7458 34.0901 31.7458C34.3038 31.7458 34.5153 31.7026 34.7118 31.6187C34.9083 31.5348 35.0858 31.4122 35.2336 31.2579Z" fill="black"/>
<path d="M30.8258 26.8409L39.9324 17.7385C40.2356 17.4354 40.4061 17.0242 40.4061 16.5955C40.4061 16.1668 40.2356 15.7557 39.9324 15.4526C39.6291 15.1494 39.2178 14.9791 38.7889 14.9791C38.36 14.9791 37.9487 15.1494 37.6454 15.4526L28.5285 24.5756C28.2309 24.8775 28.064 25.2843 28.064 25.7083C28.064 26.1321 28.2309 26.539 28.5285 26.8409C28.678 26.995 28.8564 27.1181 29.0534 27.2033C29.2505 27.2885 29.4625 27.334 29.6772 27.3374C29.8919 27.334 30.1038 27.2885 30.3009 27.2033C30.498 27.1181 30.6764 26.995 30.8258 26.8409Z" fill="black"/>
<path d="M76.2488 12.1091C76.2488 12.1425 76.1981 12.1675 76.1727 12.1342C74.6002 9.98821 71.861 8.6939 68.8006 8.6939C63.1194 8.6939 58.8332 13.0443 58.8332 18.7891C58.8332 24.4754 63.2209 28.9175 68.8006 28.9175C71.8695 28.9175 74.6087 27.6149 76.1727 25.4607C76.1981 25.4272 76.2488 25.4439 76.2488 25.4774V27.4313C76.2488 28.0325 76.7391 28.5168 77.3309 28.5168H78.2186C78.3618 28.5156 78.5034 28.4867 78.6353 28.4316C78.7672 28.3764 78.8868 28.2961 78.9873 28.1954C79.0878 28.0946 79.1672 27.9752 79.221 27.8441C79.2747 27.713 79.3019 27.5727 79.3007 27.4313V10.1803C79.3019 10.0391 79.2747 9.89929 79.2208 9.76862C79.1669 9.63803 79.0874 9.51918 78.9868 9.41908C78.8862 9.31891 78.7665 9.23948 78.6346 9.1852C78.5028 9.131 78.3614 9.10307 78.2186 9.10307H77.3309C77.0439 9.10746 76.7699 9.22256 76.5677 9.42387C76.3654 9.62518 76.2509 9.89666 76.2488 10.1803V12.1091ZM71.5567 25.6026C66.4335 27.2809 61.902 23.6654 61.902 18.7556C61.884 17.8227 62.0547 16.8955 62.404 16.0285C62.7534 15.1615 63.2744 14.372 63.9365 13.7064C64.5987 13.0408 65.3887 12.5123 66.2602 12.152C67.1317 11.7917 68.0672 11.6068 69.012 11.608C70.035 11.5972 71.0485 11.8022 71.9848 12.2093C72.9211 12.6164 73.7586 13.2163 74.4413 13.9689C75.124 14.7213 75.6361 15.6092 75.9435 16.573C76.2508 17.5367 76.3462 18.5542 76.2234 19.5572C76.133 20.9063 75.6421 22.1992 74.8121 23.2743C73.9822 24.3495 72.8499 25.1593 71.5567 25.6026ZM112.796 8.70228C106.98 8.70228 102.77 12.9357 102.77 18.764C102.77 24.659 106.98 28.9342 112.796 28.9342C116.178 28.9342 119.153 27.4981 120.963 25.0348C121.045 24.9178 121.1 24.7844 121.124 24.6439C121.148 24.5036 121.14 24.3597 121.101 24.2226C121.063 24.0854 120.994 23.9584 120.9 23.8506C120.806 23.7428 120.688 23.6567 120.557 23.5986L119.864 23.2813C119.613 23.1798 119.335 23.1591 119.071 23.222C118.807 23.285 118.57 23.4284 118.393 23.632C117.705 24.4064 116.853 25.0223 115.898 25.4363C114.943 25.8504 113.907 26.0525 112.864 26.0285C109.076 26.0285 106.438 23.7823 105.915 20.1584C105.915 20.1334 105.94 20.1167 105.974 20.1167H121.647C121.858 20.1169 122.06 20.0374 122.213 19.8944C122.365 19.7514 122.457 19.556 122.468 19.3485L122.484 18.764C122.468 12.7353 118.579 8.70228 112.796 8.70228ZM112.796 11.608C116.449 11.608 118.959 13.8208 119.416 17.3946C119.424 17.4196 119.399 17.4447 119.382 17.4447H105.999C105.974 17.4447 105.957 17.4196 105.965 17.3946C106.515 13.7624 109.051 11.608 112.796 11.608ZM137.702 8.70228C134.667 8.70228 131.886 10.0549 130.33 12.2009C130.313 12.2259 130.246 12.2176 130.246 12.1759V10.1301C130.243 9.86425 130.136 9.60978 129.946 9.421C129.757 9.23222 129.5 9.12414 129.231 9.11975H128.225C127.952 9.11975 127.69 9.22567 127.496 9.41469C127.301 9.60371 127.19 9.86066 127.185 10.1301V36.7498C127.185 37.3009 127.65 37.7602 128.225 37.7602H129.231C129.78 37.7602 130.246 37.3009 130.246 36.7498V25.4858C130.246 25.4523 130.313 25.4356 130.33 25.469C131.911 27.6233 134.642 28.9259 137.702 28.9259C143.383 28.9259 147.669 24.5922 147.669 18.8391C147.669 13.061 143.383 8.70228 137.702 8.70228ZM135.005 12.0088C136.109 11.6181 137.292 11.4986 138.452 11.6606C139.613 11.8226 140.716 12.2612 141.666 12.9386C142.618 13.616 143.387 14.5117 143.908 15.5485C144.43 16.5853 144.687 17.7319 144.66 18.8893C144.675 19.8252 144.5 20.7545 144.146 21.6228C143.792 22.4911 143.267 23.281 142.599 23.9459C141.932 24.6109 141.138 25.1376 140.262 25.4952C139.386 25.8529 138.447 26.0341 137.499 26.0285C136.473 26.0412 135.457 25.8366 134.518 25.4284C133.579 25.0202 132.74 24.418 132.056 23.6624C131.373 22.9067 130.862 22.0151 130.556 21.0477C130.251 20.0803 130.16 19.0595 130.288 18.0542C130.379 16.6982 130.876 15.3995 131.716 14.3232C132.556 13.2468 133.701 12.4412 135.005 12.0088ZM155.278 1.54636H154.661C154.342 1.54635 154.036 1.67101 153.81 1.89313C153.583 2.11526 153.454 2.41683 153.453 2.73206V9.06132C153.453 9.08638 153.427 9.11145 153.41 9.11145H151.153C150.833 9.11145 150.524 9.23725 150.298 9.46115C150.072 9.68505 149.944 9.98877 149.944 10.3055V10.5894C149.944 11.249 150.485 11.775 151.153 11.775H153.41C153.427 11.775 153.453 11.7918 153.453 11.8169V27.3394C153.453 27.9907 153.993 28.5334 154.661 28.5334H155.278C155.599 28.5313 155.904 28.4048 156.131 28.1813C156.357 27.9578 156.485 27.6554 156.487 27.3394V11.8169C156.487 11.7918 156.504 11.775 156.538 11.775H159.691C160.011 11.7751 160.317 11.6504 160.543 11.4283C160.77 11.2061 160.898 10.9046 160.9 10.5894V10.3055C160.9 9.98877 160.773 9.68505 160.547 9.46115C160.32 9.23725 160.012 9.11145 159.691 9.11145H156.538C156.504 9.11145 156.487 9.09477 156.487 9.06132V2.73206C156.485 2.41683 156.357 2.11526 156.13 1.89313C155.904 1.67101 155.598 1.54635 155.278 1.54636ZM166.066 0.243774C164.823 0.243774 163.834 1.16227 163.834 2.33127C163.834 3.45016 164.84 4.36865 166.066 4.36865C167.368 4.36865 168.357 3.49191 168.357 2.33127C168.349 1.13722 167.368 0.243774 166.066 0.243774ZM165.821 28.5251H166.32C166.659 28.5229 166.984 28.3882 167.223 28.1505C167.462 27.9127 167.596 27.5911 167.596 27.2559V10.3806C167.596 10.0454 167.462 9.72392 167.223 9.48613C166.984 9.24834 166.659 9.1136 166.32 9.11145H165.821C165.652 9.11033 165.484 9.14242 165.328 9.2058C165.171 9.26918 165.029 9.36265 164.91 9.48071C164.79 9.59876 164.695 9.73917 164.631 9.89362C164.567 10.0481 164.535 10.2136 164.535 10.3806V27.2559C164.535 27.9573 165.11 28.5251 165.821 28.5251ZM182.704 8.70228C176.752 8.70228 172.441 12.9357 172.441 18.764C172.441 24.1581 176.236 28.308 181.469 28.8674C188.207 29.6023 193.906 23.632 192.874 17.0355C192.105 12.1091 188.063 8.70228 182.704 8.70228ZM182.704 26.0201C178.536 26.0201 175.501 22.964 175.501 18.7556C175.501 14.923 178.105 12.0506 181.799 11.6498C182.84 11.5455 183.892 11.6608 184.884 11.988C185.877 12.3153 186.788 12.847 187.556 13.548C188.325 14.249 188.935 15.1032 189.344 16.0542C189.754 17.0053 189.954 18.0313 189.932 19.0646C189.923 19.9907 189.727 20.9058 189.358 21.7573C188.989 22.6087 188.453 23.3797 187.782 24.026C187.11 24.6724 186.315 25.1813 185.444 25.5235C184.573 25.8657 183.642 26.0344 182.704 26.0201ZM98.8638 9.11145H97.3337C97.095 9.10993 96.8602 9.16541 96.6478 9.27301C96.4361 9.38053 96.2533 9.53714 96.1159 9.72935L92.1429 15.8499C92.1254 15.8749 92.0839 15.8749 92.0663 15.8499L88.051 9.72935C87.9136 9.53658 87.7316 9.37965 87.5191 9.27205C87.3075 9.16437 87.0719 9.10929 86.8332 9.11145H85.3031C85.1665 9.11105 85.0323 9.14825 84.9166 9.21881C84.8 9.28945 84.7057 9.39067 84.6442 9.51112C84.5827 9.63165 84.5564 9.76663 84.5684 9.90105C84.5803 10.0355 84.6299 10.1639 84.7113 10.2721L90.2487 18.405C90.2655 18.4133 90.2655 18.4383 90.2487 18.455L83.8832 27.3478C83.8025 27.4581 83.7546 27.588 83.7434 27.7235C83.7322 27.859 83.7594 27.9949 83.8217 28.1163C83.8832 28.2376 83.9774 28.3399 84.0948 28.412C84.2114 28.4841 84.3456 28.5232 84.4829 28.5251H85.9292C86.1639 28.5258 86.3963 28.4717 86.6064 28.3672C86.8164 28.2628 86.9985 28.1109 87.1374 27.9239L92.0663 20.9934C92.0839 20.9768 92.1254 20.9768 92.1429 20.9934L96.9872 27.9072C97.1245 28.0994 97.3066 28.256 97.519 28.3636C97.7306 28.4712 97.9662 28.5266 98.2042 28.5251H99.692C100.301 28.5251 100.648 27.8571 100.301 27.3561L93.9605 18.4133V18.3548L99.4636 10.2721C99.5458 10.1633 99.5953 10.0341 99.6073 9.89897C99.6185 9.76375 99.5921 9.62814 99.5291 9.50737C99.4668 9.38659 99.3717 9.28546 99.2535 9.21546C99.1362 9.14553 99.0012 9.10945 98.8638 9.11145Z" fill="black"/>
</g>
<defs>
<clipPath id="clip0_1_3136">
<rect width="192.556" height="37.5164" fill="white" transform="translate(0.439819 0.243774)"/>
</clipPath>
</defs>
</svg>
