<svg width="157" height="32" viewBox="0 0 157 32" fill="none" xmlns="http://www.w3.org/2000/svg">
<path fill-rule="evenodd" clip-rule="evenodd" d="M27.2608 0.760986H8.55478C6.28981 0.760986 4.11761 1.6602 2.51604 3.26082C0.914464 4.86144 0.0147095 7.03235 0.0147095 9.29596V14.4955C0.584863 13.1911 1.52337 12.0813 2.71523 11.3021C3.90709 10.5228 5.30052 10.108 6.72476 10.1084H22.3808C23.675 10.1084 24.9163 9.59459 25.8315 8.67995C26.7467 7.76531 27.2608 6.52479 27.2608 5.2313V0.760986ZM10.9174 13.7663C10.061 13.7663 9.36656 14.4615 9.36656 15.3173V21.8944H22.4547C23.311 21.8944 24.0055 21.2004 24.0055 20.3445V13.7674L10.9174 13.7663ZM1.5667 21.8956C0.71035 21.8956 0.0147095 22.5897 0.0147095 23.4467V31.243H7.81574C8.67326 31.243 9.36773 30.549 9.36773 29.692V21.8956H1.5667Z" fill="#005DF5"/>
<path d="M103.978 22.671C102.792 22.6837 101.619 22.428 100.546 21.9231C99.5132 21.4072 98.6874 20.6334 98.068 19.6017C97.4486 18.5528 97.1389 17.2374 97.1389 15.6555V15.1396C97.1389 13.6272 97.4314 12.372 98.0164 11.3739C98.6186 10.3766 99.4186 9.62862 100.417 9.12997C101.414 8.63131 102.516 8.38199 103.72 8.38199C105.871 8.38199 107.505 8.94942 108.623 10.0843C109.742 11.2192 110.301 12.8613 110.301 15.0107V16.455H100.623C100.657 17.264 100.829 17.926 101.139 18.4411C101.465 18.9389 101.878 19.3086 102.378 19.5501C102.877 19.7737 103.41 19.8854 103.978 19.8854C104.855 19.8854 105.517 19.7565 105.965 19.4986C106.408 19.2457 106.747 18.8434 106.92 18.3637H110.043C109.768 19.7917 109.088 20.8663 108.004 21.5878C106.92 22.3099 105.578 22.671 103.978 22.671ZM103.849 11.1676C103.322 11.166 102.798 11.2532 102.3 11.4255C101.801 11.5975 101.405 11.907 101.113 12.354C100.82 12.7839 100.657 13.3599 100.623 14.0821H106.998C106.98 13.3084 106.825 12.7151 106.533 12.3024C106.278 11.8886 105.885 11.5781 105.423 11.4255C104.918 11.2456 104.385 11.1582 103.849 11.1676ZM88.105 22.3615V8.6915H91.2019V10.7291C91.392 10.3344 91.65 9.96471 91.9762 9.62003C92.3266 9.25971 92.737 8.96298 93.1891 8.74308C93.6709 8.50235 94.2042 8.38199 94.7892 8.38199C95.1169 8.38199 95.3922 8.39918 95.6151 8.43357C95.8567 8.46874 96.0116 8.50313 96.0796 8.53674V11.5545C95.8625 11.4723 95.6377 11.4118 95.4086 11.3739C95.1505 11.3051 94.7978 11.2707 94.3505 11.2707C93.6623 11.2707 93.1031 11.4169 92.673 11.7092C92.26 12.0023 91.959 12.3892 91.7697 12.8699C91.5765 13.3537 91.48 13.8707 91.4858 14.3916V22.3615H88.105ZM68.3959 22.2841C69.0842 22.5765 69.9616 22.7226 71.0283 22.7226C71.5445 22.7226 71.9746 22.7054 72.3187 22.671C72.68 22.6546 73.0242 22.6288 73.3511 22.5937V19.7565C72.8349 19.8081 72.3187 19.8339 71.8026 19.8339C71.0283 19.8339 70.495 19.6705 70.2025 19.3438C69.9272 18.9999 69.7896 18.4411 69.7896 17.6673V11.735H73.093V8.89784H69.7896V5.80391H66.4087V18.2101C66.4087 19.2762 66.5636 20.1445 66.8733 20.8151C67.2002 21.4858 67.7077 21.9746 68.3959 22.2841Z" fill="#00112C"/>
<path fill-rule="evenodd" clip-rule="evenodd" d="M55.3672 9.67278H52.343V17.4105C52.343 18.7787 52.8868 20.0907 53.8548 21.0581C54.8228 22.0256 56.1357 22.569 57.5046 22.569H59.4402C60.8091 22.569 62.122 22.0256 63.09 21.0581C64.058 20.0907 64.6018 18.7787 64.6018 17.4105V9.67278H61.5611V16.754C61.5611 17.5749 61.2348 18.3621 60.6541 18.9426C60.0733 19.523 59.2855 19.8491 58.4642 19.8491C57.6428 19.8491 56.8551 19.523 56.2743 18.9426C55.6935 18.3621 55.3672 17.5749 55.3672 16.754V9.67278ZM77.3087 9.67278H74.2844V17.4105C74.2844 18.7787 74.8282 20.0907 75.7962 21.0581C76.7642 22.0256 78.0771 22.569 79.446 22.569H81.3816C82.0594 22.569 82.7306 22.4356 83.3569 22.1764C83.9831 21.9171 84.5521 21.5372 85.0314 21.0581C85.5107 20.5791 85.8909 20.0105 86.1503 19.3846C86.4097 18.7588 86.5432 18.088 86.5432 17.4105V9.67278H83.5026V16.754C83.5026 17.5749 83.1763 18.3621 82.5955 18.9426C82.0147 19.523 81.227 19.8491 80.4056 19.8491C79.5842 19.8491 78.7965 19.523 78.2157 18.9426C77.6349 18.3621 77.3087 17.5749 77.3087 16.754V9.67278Z" fill="#00112C"/>
<path d="M38.1747 22.569V4.51428H50.5367V8.38316H42.0201V12.252H50.5367V16.1209H42.0201V22.569H38.1747ZM146.48 27.4895C146.248 27.4895 146.015 27.4661 145.783 27.4192V24.82C146.015 24.8669 146.248 24.8904 146.48 24.8904C146.789 24.8904 147.044 24.8126 147.246 24.6571C147.463 24.5023 147.656 24.2545 147.827 23.9138C148.012 23.5738 148.213 23.1251 148.431 22.5679L143.228 10.2648H146.665L150.01 18.7611L153.053 10.2648H156.235L151.496 22.5679C151.047 23.7285 150.614 24.6649 150.196 25.3769C149.778 26.1038 149.282 26.6376 148.709 26.9784C148.152 27.3192 147.409 27.4895 146.48 27.4895ZM116.75 22.569V6.31976H122.998C124.47 6.31976 125.686 6.54407 126.645 6.99271C127.605 7.42571 128.317 8.04473 128.783 8.84977C129.247 9.63917 129.48 10.5755 129.48 11.6588C129.48 12.7421 129.247 13.6859 128.783 14.4901C128.317 15.2795 127.605 15.8985 126.645 16.3472C125.685 16.781 124.469 16.9979 122.998 16.9979H120.211V22.569H116.75ZM120.211 14.1185H122.65C123.889 14.1185 124.757 13.9098 125.252 13.4924C125.763 13.0743 126.019 12.4631 126.018 11.6588C126.018 10.8694 125.762 10.2656 125.252 9.84747C124.757 9.41447 123.889 9.19797 122.65 9.19797H120.211V14.1185Z" fill="#00112C"/>
<path fill-rule="evenodd" clip-rule="evenodd" d="M136.031 10.9624V13.8477H139.208V17.1667H142.24V10.9624H136.031Z" fill="#00112C"/>
<path fill-rule="evenodd" clip-rule="evenodd" d="M129.964 17.0235C129.964 15.5659 130.489 14.1569 131.443 13.0549C132.398 11.9529 133.718 11.2316 135.162 11.0232V13.9671C134.635 14.1165 134.156 14.3993 133.772 14.7881C133.387 15.1769 133.109 15.6584 132.965 16.1861C132.821 16.7138 132.816 17.2697 132.95 17.7999C133.084 18.3301 133.353 18.8167 133.731 19.2124C134.109 19.6082 134.582 19.8997 135.106 20.0588C135.63 20.2178 136.185 20.2389 136.72 20.1202C137.254 20.0014 137.748 19.7467 138.155 19.3808C138.562 19.0149 138.867 18.5502 139.041 18.0318H142.009V18.0329H142.238V22.9405H139.205V22.1867C138.286 22.7515 137.233 23.061 136.154 23.0834C135.076 23.1057 134.011 22.8401 133.069 22.3138C132.127 21.7876 131.343 21.0198 130.797 20.0896C130.251 19.1595 129.964 18.1006 129.964 17.0223" fill="#00112C"/>
</svg>
