<svg width="129" height="36" viewBox="0 0 129 36" fill="none" xmlns="http://www.w3.org/2000/svg">
<path d="M27.65 0.309366C26.5614 0.306738 25.3455 0.433455 24.0267 0.768725C24.0267 0.768725 17.2646 2.44585 9.81149 9.40098C9.81149 9.40098 6.25768 13.0019 3.7404 17.6386C3.7404 17.6386 1.1244 22.4727 0.729533 26.5175C0.729533 26.5175 0.334665 31.0556 2.90131 33.374C2.90131 33.374 5.86281 36.087 12.3288 35.5444C12.3288 35.5444 16.3762 35.0511 20.7691 32.2888C20.7691 32.2888 22.8915 30.9076 24.2735 29.6251C24.2735 29.6251 23.6319 31.9435 24.5697 33.6206C24.5697 33.6206 25.4581 35.1991 27.4818 35.5444C27.4818 35.5444 28.9626 35.8403 31.085 35.0511C31.085 35.0511 32.4177 34.4592 33.3061 34.0152C33.3061 34.0152 35.1324 33.0287 36.9093 31.6475C36.9093 31.6475 36.5638 33.0287 37.3535 34.2126C37.3535 34.2126 38.2913 35.5444 40.0189 35.6924C40.0189 35.6924 44.6586 36.0377 51.1245 28.096L46.5836 35.3964L50.7297 35.3471L54.3328 29.1319C54.3328 29.1319 58.0841 22.7193 58.8738 21.9301C58.8738 21.9301 60.7988 19.3651 63.711 18.7731L65.6359 18.9211C65.6359 18.9211 66.4257 19.3157 66.4257 20.2036L64.9943 19.957C64.9943 19.957 64.1552 20.0557 63.711 20.9435C63.711 20.9435 63.3161 21.7821 63.5135 22.6207C63.5135 22.6207 63.7603 23.3112 64.402 23.5579L64.8462 23.7059L66.2776 23.5086C66.2776 23.5086 68.7949 22.5713 72.25 18.2305L71.4602 19.661L68.5481 24.6431L65.1424 30.661C65.1424 30.661 64.1552 32.6341 64.5994 33.8179C64.5994 33.8179 65.0436 34.9525 66.5244 35.2484L69.7327 35.0018C69.7327 35.0018 71.559 34.4592 73.0397 33.1767L75.1621 31.4502C75.1621 31.4502 77.7288 29.2798 80.0486 26.7148L79.9005 26.9121C79.9005 26.9121 77.8768 30.6117 77.5313 31.8448C77.5313 31.8448 76.7416 34.4592 78.5679 35.4951L80.6409 35.6924C80.6409 35.6924 82.3685 35.4457 84.096 34.2126L86.9095 31.7955C86.9095 31.7955 89.328 29.5265 90.6113 27.8987C90.6113 27.8987 89.9697 29.3785 89.8216 30.4637C89.8216 30.4637 89.328 33.9166 92.5363 35.2977L95.5472 35.5444C95.5472 35.5444 96.7318 35.4457 98.5581 34.8045C98.5581 34.8045 102.803 33.4233 108.775 27.948C108.775 27.948 111.786 25.1857 113.909 22.7193L106.406 35.2977H110.108L112.872 30.661L116.426 24.8897C116.426 24.8897 118.45 21.6834 122.151 19.6117C122.151 19.6117 123.632 18.7238 124.767 18.5265C124.767 18.5265 125.952 18.2799 126.199 18.8718C126.199 18.8718 124.521 18.5265 124.126 20.253C124.126 20.253 123.731 21.9794 125.113 22.522C125.113 22.522 126.149 22.8673 126.989 22.2754C126.989 22.2754 127.729 21.7328 127.976 20.6969C127.976 20.6969 128.173 19.661 127.68 18.9211C127.68 18.9211 127.087 18.0332 125.705 17.9346C125.705 17.9346 124.175 17.8853 121.115 19.9077C121.115 19.9077 118.844 21.3875 117.907 22.3247L120.424 18.0332H116.673C116.673 18.0332 113.119 24.0512 106.85 29.2305C106.85 29.2305 100.73 34.2125 97.2747 34.3605C97.2747 34.3605 93.9184 34.6072 93.5728 32.0422C93.5728 32.0422 93.3754 30.513 94.2639 28.3426C94.2639 28.3426 96.3369 28.5399 99.101 27.652C99.101 27.652 101.717 26.8135 103.889 25.3337C103.889 25.3337 106.209 23.7552 107.048 22.0781C107.048 22.0781 108.035 20.2036 106.9 18.6252C106.9 18.6252 104.827 16.6027 100.335 18.4772C100.335 18.4772 95.6953 20.4009 92.2402 24.9884L91.253 26.4682L88.7851 29.3292L86.2678 31.8448C86.2678 31.8448 83.2076 34.8538 81.6775 33.9659C81.6775 33.9659 81.0852 33.5713 81.0852 32.6341C81.0852 32.6341 81.0852 31.6969 81.7762 30.5623L88.9331 18.1319H85.7248C85.7248 18.1319 83.9479 21.0422 81.8749 23.8045C81.8749 23.8045 77.8275 29.1812 73.4346 32.2888C73.4346 32.2888 70.4237 34.6072 68.7455 33.8179C68.7455 33.8179 68.0051 33.4726 68.0545 32.5354C68.0545 32.5354 68.1039 31.4996 69.091 30.0691L76.0999 18.1319L79.9993 18.0826L80.4928 17.5893H76.5442L80.7396 10.1409L77.1858 10.1902C77.1858 10.1902 74.7179 14.383 72.8423 16.8987C72.8423 16.8987 69.3872 21.4368 66.5244 22.67C66.5244 22.67 67.018 22.0287 67.0673 21.0422L67.018 20.253C67.018 20.253 66.8205 19.2171 65.8334 18.7238L64.9449 18.4772L63.2667 18.6252C63.2667 18.6252 61.2924 19.0691 59.4661 20.6476L60.9962 18.0826H57.4424C57.4424 18.0826 54.2341 23.8045 50.0387 28.6879C50.0387 28.6879 44.5599 35.0018 41.549 34.2619C41.549 34.2619 40.6605 33.8179 40.6112 32.7327C40.6112 32.7327 40.6112 31.6475 41.549 30.1184L48.706 18.0332L45.1522 18.0826L44.0169 20.0557L43.2765 21.4861C43.2765 21.4861 43.4246 21.0422 43.2765 20.105C43.2765 20.105 42.9804 17.8853 40.858 17.4413L39.1798 17.2933C39.1798 17.2933 34.935 17.244 30.0978 21.4861C30.0978 21.4861 26.7908 24.4458 24.2735 28.9345C24.2735 28.9345 19.239 33.6206 13.9082 34.6565C13.9082 34.6565 9.16983 35.643 7.14613 33.522C7.14613 33.522 4.925 31.2529 4.925 27.3067C4.925 27.3067 4.97436 22.6207 8.33074 16.2575C8.33074 16.2575 11.8845 11.0288 14.0563 8.66107C14.0563 8.66107 19.5845 2.59383 25.3101 1.06469C25.3101 1.06469 29.9991 -0.168491 32.6151 1.95258C32.6151 1.95258 34.8362 3.77768 35.0337 7.47722L36.317 5.30683C36.317 5.30683 37.9458 2.74181 39.3772 1.262C39.3772 1.262 38.0445 1.85392 36.4157 2.05123C36.4157 2.05123 34.392 2.29787 33.4048 1.70594C33.4048 1.70594 31.206 0.31795 27.65 0.309366ZM39.7042 17.7404C41.1504 17.7477 41.8945 18.4279 41.8945 18.4279C43.6221 20.0063 42.24 22.966 42.24 22.966C39.5747 28.4906 35.6753 31.8448 35.6753 31.8448L33.3061 33.522C29.6042 35.3471 28.0248 34.0646 28.0248 34.0646C26.7415 32.9794 27.2844 30.513 27.2844 30.513C27.6299 28.8359 29.0119 26.4189 29.0119 26.4189L31.6773 22.522C34.0959 19.8583 36.8599 18.4772 36.8599 18.4772C37.9967 17.9176 38.9467 17.7365 39.7042 17.7404ZM103.199 18.1751C103.249 18.1744 103.298 18.1766 103.346 18.1812C103.346 18.1812 104.136 18.2799 104.481 18.6745C104.481 18.6745 104.827 19.1678 104.728 20.1543C104.728 20.1543 104.481 22.7686 101.569 25.235C101.569 25.235 98.2619 28.0467 94.4119 27.948L95.1523 26.4189C95.1523 26.4189 96.8305 23.1633 99.2984 20.6476C99.2984 20.6476 101.661 18.1939 103.199 18.1751Z" fill="black"/>
<path d="M88.1941 12.6562C88.1941 12.6562 88.1941 13.2974 88.6877 13.7907C88.6877 13.7907 89.1319 14.2346 89.8229 14.2346C89.8229 14.2346 90.4646 14.2346 90.9088 13.7907C90.9088 13.7907 91.353 13.2974 91.353 12.6562L90.9088 11.5216C90.9088 11.5216 90.4152 11.0777 89.8229 11.0777C89.8229 11.0777 89.1319 11.0777 88.6877 11.5216C88.6877 11.5216 88.1941 11.9656 88.1941 12.6562Z" fill="black"/>
</svg>
