<svg width="193" height="38" viewBox="0 0 193 38" fill="none" xmlns="http://www.w3.org/2000/svg">
<g clip-path="url(#clip0_1_3671)">
<path d="M9.81545 29.1963C10.0199 29.1128 10.2055 28.989 10.361 28.8323L29.8262 9.36561C30.1354 9.04879 30.3083 8.62378 30.3083 8.18126C30.3083 7.73874 30.1354 7.31373 29.8262 6.99692C29.6704 6.83993 29.485 6.71532 29.2807 6.63028C29.0765 6.54525 28.8575 6.50146 28.6362 6.50146C28.4149 6.50146 28.1958 6.54525 27.9916 6.63028C27.7874 6.71532 27.6019 6.83993 27.4461 6.99692L9.16061 25.2637L2.87918 18.9851C2.72334 18.8281 2.53795 18.7035 2.3337 18.6185C2.12944 18.5335 1.91038 18.4897 1.68912 18.4897C1.46786 18.4897 1.24879 18.5335 1.04454 18.6185C0.840288 18.7035 0.6549 18.8281 0.499061 18.9851C0.341043 19.1394 0.215471 19.3235 0.129736 19.5269C0.0439995 19.7303 -0.000167847 19.9488 -0.000167847 20.1695C-0.000167847 20.3902 0.0439995 20.6087 0.129736 20.8121C0.215471 21.0155 0.341043 21.1996 0.499061 21.3539L7.99124 28.8323C8.14593 28.9872 8.32984 29.1101 8.53236 29.1935C8.73489 29.277 8.95194 29.3194 9.17099 29.3184C9.3918 29.3214 9.61101 29.2799 9.81545 29.1963Z" fill="white"/>
<path d="M23.9228 22.8967C24.1909 23.0738 24.5058 23.1669 24.8272 23.164C25.0419 23.1668 25.2548 23.1251 25.4525 23.0413C25.6503 22.9577 25.8284 22.8339 25.9759 22.6778L37.9178 10.731C38.0696 10.5818 38.1901 10.4039 38.2724 10.2076C38.3546 10.0114 38.397 9.80077 38.397 9.58805C38.397 9.37526 38.3546 9.16462 38.2724 8.96839C38.1901 8.77216 38.0696 8.59427 37.9178 8.44506C37.7687 8.29495 37.5914 8.17581 37.396 8.0945C37.2007 8.01319 36.9911 7.97134 36.7795 7.97134C36.5679 7.97134 36.3583 8.01319 36.163 8.0945C35.9676 8.17581 35.7903 8.29495 35.6412 8.44506L23.6785 20.4023C23.4499 20.628 23.2937 20.9168 23.2302 21.2317C23.1668 21.5466 23.1988 21.8733 23.3221 22.1699C23.4455 22.4665 23.6546 22.7196 23.9228 22.8967Z" fill="white"/>
<path d="M34.7938 31.5013L39.4919 26.8053C39.6444 26.6568 39.7657 26.4794 39.8488 26.2835C39.932 26.0877 39.9753 25.8772 39.9763 25.6644C39.9772 25.4517 39.9358 25.2409 39.8544 25.0443C39.773 24.8477 39.6533 24.6692 39.5022 24.5193C39.3523 24.3689 39.1741 24.2495 38.9779 24.1681C38.7816 24.0867 38.5712 24.0448 38.3587 24.0448C38.1463 24.0448 37.9359 24.0867 37.7397 24.1681C37.5435 24.2495 37.3653 24.3689 37.2152 24.5193L32.5068 29.205C32.2047 29.5108 32.0353 29.9233 32.0353 30.3531C32.0353 30.7829 32.2047 31.1954 32.5068 31.5013C32.6546 31.6556 32.8321 31.7782 33.0286 31.8621C33.2251 31.946 33.4366 31.9892 33.6503 31.9892C33.864 31.9892 34.0754 31.946 34.272 31.8621C34.4685 31.7782 34.646 31.6556 34.7938 31.5013Z" fill="white"/>
<path d="M30.386 27.0843L39.4926 17.9819C39.7958 17.6788 39.9663 17.2676 39.9663 16.839C39.9663 16.4102 39.7958 15.9991 39.4926 15.696C39.1893 15.3928 38.778 15.2226 38.3491 15.2226C37.9202 15.2226 37.5089 15.3928 37.2056 15.696L28.0887 24.819C27.7911 25.1209 27.6242 25.5277 27.6242 25.9517C27.6242 26.3755 27.7911 26.7824 28.0887 27.0843C28.2382 27.2384 28.4166 27.3615 28.6136 27.4468C28.8107 27.5319 29.0227 27.5774 29.2374 27.5808C29.4521 27.5774 29.664 27.5319 29.8611 27.4468C30.0582 27.3615 30.2366 27.2384 30.386 27.0843Z" fill="white"/>
<path d="M75.809 12.3526C75.809 12.386 75.7583 12.411 75.7329 12.3777C74.1604 10.2317 71.4212 8.93743 68.3608 8.93743C62.6796 8.93743 58.3933 13.2878 58.3933 19.0326C58.3933 24.7189 62.7811 29.1611 68.3608 29.1611C71.4297 29.1611 74.1688 27.8585 75.7329 25.7042C75.7583 25.6708 75.809 25.6875 75.809 25.7209V27.6748C75.809 28.276 76.2993 28.7603 76.8911 28.7603H77.7788C77.922 28.7592 78.0636 28.7303 78.1955 28.6751C78.3274 28.62 78.447 28.5397 78.5475 28.4389C78.6479 28.3381 78.7274 28.2188 78.7811 28.0876C78.8349 27.9566 78.862 27.8162 78.8609 27.6748V10.4238C78.862 10.2827 78.8349 10.1428 78.781 10.0122C78.7271 9.88157 78.6475 9.76271 78.547 9.66261C78.4464 9.56244 78.3267 9.48301 78.1948 9.42873C78.063 9.37453 77.9216 9.3466 77.7788 9.3466H76.8911C76.604 9.35099 76.33 9.46609 76.1278 9.6674C75.9256 9.86871 75.8111 10.1402 75.809 10.4238V12.3526ZM71.1169 25.8461C65.9936 27.5245 61.4622 23.9089 61.4622 18.9992C61.4442 18.0662 61.6149 17.1391 61.9642 16.272C62.3136 15.405 62.8346 14.6156 63.4967 13.9499C64.1589 13.2843 64.9489 12.7559 65.8204 12.3956C66.6918 12.0352 67.6274 11.8503 68.5722 11.8516C69.5952 11.8407 70.6087 12.0457 71.545 12.4528C72.4813 12.86 73.3188 13.4598 74.0015 14.2124C74.6842 14.9649 75.1963 15.8527 75.5037 16.8165C75.811 17.7802 75.9064 18.7977 75.7836 19.8007C75.6932 21.1498 75.2023 22.4427 74.3723 23.5178C73.5424 24.593 72.4101 25.4028 71.1169 25.8461ZM112.356 8.94581C106.54 8.94581 102.33 13.1793 102.33 19.0075C102.33 24.9026 106.54 29.1778 112.356 29.1778C115.738 29.1778 118.714 27.7416 120.523 25.2784C120.606 25.1613 120.661 25.0279 120.685 24.8875C120.709 24.7471 120.701 24.6032 120.661 24.4661C120.623 24.329 120.554 24.202 120.46 24.0941C120.366 23.9863 120.249 23.9002 120.118 23.8421L119.424 23.5248C119.173 23.4234 118.895 23.4026 118.631 23.4655C118.367 23.5285 118.13 23.6719 117.953 23.8756C117.265 24.6499 116.413 25.2658 115.458 25.6799C114.503 26.0939 113.467 26.296 112.424 26.272C108.636 26.272 105.999 24.0259 105.475 20.402C105.475 20.3769 105.5 20.3602 105.534 20.3602H121.208C121.418 20.3604 121.621 20.2809 121.773 20.1379C121.926 19.9949 122.017 19.7995 122.028 19.592L122.045 19.0075C122.028 12.9788 118.139 8.94581 112.356 8.94581ZM112.356 11.8516C116.009 11.8516 118.52 14.0643 118.976 17.6381C118.984 17.6632 118.959 17.6882 118.942 17.6882H105.559C105.534 17.6882 105.517 17.6632 105.525 17.6381C106.075 14.0059 108.612 11.8516 112.356 11.8516ZM137.262 8.94581C134.227 8.94581 131.446 10.2985 129.891 12.4444C129.873 12.4695 129.806 12.4612 129.806 12.4194V10.3737C129.804 10.1078 129.697 9.85331 129.507 9.66453C129.317 9.47575 129.06 9.36767 128.791 9.36328H127.786C127.512 9.36328 127.251 9.4692 127.056 9.65822C126.862 9.84724 126.75 10.1042 126.745 10.3737V36.9934C126.745 37.5445 127.211 38.0037 127.786 38.0037H128.791C129.34 38.0037 129.806 37.5445 129.806 36.9934V25.7293C129.806 25.6958 129.873 25.6792 129.891 25.7125C131.471 27.8668 134.202 29.1695 137.262 29.1695C142.944 29.1695 147.23 24.8358 147.23 19.0827C147.23 13.3045 142.944 8.94581 137.262 8.94581ZM134.566 12.2524C135.669 11.8616 136.852 11.7421 138.012 11.9041C139.173 12.0661 140.276 12.5048 141.227 13.1821C142.178 13.8595 142.947 14.7553 143.468 15.7921C143.99 16.8288 144.248 17.9754 144.22 19.1328C144.235 20.0687 144.06 20.9981 143.706 21.8664C143.352 22.7347 142.827 23.5245 142.159 24.1894C141.493 24.8544 140.698 25.3812 139.822 25.7388C138.947 26.0964 138.007 26.2777 137.06 26.272C136.033 26.2847 135.017 26.0801 134.078 25.6719C133.139 25.2638 132.3 24.6616 131.616 23.9059C130.933 23.1502 130.422 22.2586 130.117 21.2913C129.812 20.3238 129.72 19.303 129.848 18.2978C129.939 16.9417 130.436 15.643 131.276 14.5667C132.116 13.4903 133.261 12.6848 134.566 12.2524ZM154.838 1.78989H154.221C153.903 1.78988 153.596 1.91454 153.37 2.13666C153.143 2.35879 153.015 2.66036 153.013 2.97559V9.30485C153.013 9.32991 152.987 9.35498 152.971 9.35498H150.713C150.393 9.35498 150.085 9.48078 149.858 9.70468C149.632 9.92858 149.504 10.2323 149.504 10.549V10.8329C149.504 11.4925 150.045 12.0186 150.713 12.0186H152.971C152.987 12.0186 153.013 12.0353 153.013 12.0604V27.5829C153.013 28.2343 153.554 28.777 154.221 28.777H154.838C155.159 28.7748 155.465 28.6483 155.691 28.4248C155.917 28.2014 156.045 27.8989 156.048 27.5829V12.0604C156.048 12.0353 156.064 12.0186 156.099 12.0186H159.251C159.571 12.0186 159.877 11.894 160.104 11.6718C160.33 11.4497 160.458 11.1481 160.461 10.8329V10.549C160.461 10.2323 160.334 9.92858 160.107 9.70468C159.88 9.48078 159.572 9.35498 159.251 9.35498H156.099C156.064 9.35498 156.048 9.3383 156.048 9.30485V2.97559C156.045 2.66036 155.917 2.35879 155.691 2.13666C155.464 1.91454 155.158 1.78988 154.838 1.78989ZM165.627 0.487305C164.383 0.487305 163.395 1.4058 163.395 2.5748C163.395 3.69369 164.4 4.61218 165.627 4.61218C166.928 4.61218 167.917 3.73544 167.917 2.5748C167.909 1.38075 166.928 0.487305 165.627 0.487305ZM165.381 28.7686H165.88C166.219 28.7664 166.544 28.6317 166.783 28.394C167.022 28.1562 167.157 27.8346 167.157 27.4994V10.6241C167.157 10.289 167.022 9.96745 166.783 9.72966C166.544 9.49187 166.219 9.35713 165.88 9.35498H165.381C165.212 9.35386 165.044 9.38595 164.888 9.44933C164.731 9.51271 164.589 9.60618 164.47 9.72424C164.35 9.84229 164.255 9.9827 164.192 10.1372C164.128 10.2916 164.095 10.4572 164.096 10.6241V27.4994C164.096 28.2008 164.671 28.7686 165.381 28.7686ZM182.264 8.94581C176.312 8.94581 172.001 13.1793 172.001 19.0075C172.001 24.4016 175.797 28.5515 181.03 29.1109C187.767 29.8458 193.466 23.8756 192.434 17.2791C191.665 12.3526 187.624 8.94581 182.264 8.94581ZM182.264 26.2636C178.096 26.2636 175.061 23.2075 175.061 18.9992C175.061 15.1665 177.665 12.2941 181.359 11.8933C182.4 11.7891 183.452 11.9043 184.444 12.2315C185.437 12.5588 186.348 13.0905 187.116 13.7915C187.886 14.4925 188.495 15.3467 188.905 16.2977C189.314 17.2488 189.515 18.2749 189.492 19.3082C189.483 20.2342 189.287 21.1493 188.918 22.0008C188.549 22.8523 188.013 23.6233 187.342 24.2696C186.67 24.916 185.875 25.4248 185.004 25.767C184.133 26.1092 183.202 26.278 182.264 26.2636ZM98.424 9.35498H96.8939C96.6552 9.35346 96.4204 9.40894 96.208 9.51654C95.9963 9.62406 95.8134 9.78067 95.6761 9.97288L91.7031 16.0934C91.6856 16.1185 91.644 16.1185 91.6265 16.0934L87.6112 9.97288C87.4738 9.78011 87.2917 9.62318 87.0793 9.51558C86.8677 9.4079 86.6321 9.35282 86.3933 9.35498H84.8633C84.7267 9.35458 84.5925 9.39178 84.4767 9.46234C84.3601 9.53298 84.2659 9.6342 84.2044 9.75465C84.1429 9.87518 84.1166 10.0102 84.1286 10.1446C84.1405 10.279 84.19 10.4074 84.2715 10.5156L89.8089 18.6485C89.8257 18.6568 89.8257 18.6819 89.8089 18.6986L83.4434 27.5913C83.3627 27.7016 83.3148 27.8316 83.3036 27.967C83.2924 28.1026 83.3196 28.2384 83.3819 28.3598C83.4434 28.4811 83.5376 28.5835 83.655 28.6556C83.7716 28.7276 83.9058 28.7668 84.0431 28.7686H85.4893C85.7241 28.7693 85.9565 28.7152 86.1665 28.6108C86.3766 28.5063 86.5586 28.3544 86.6976 28.1674L91.6265 21.237C91.644 21.2203 91.6856 21.2203 91.7031 21.237L96.5474 28.1508C96.6847 28.343 96.8668 28.4995 97.0792 28.6071C97.2908 28.7147 97.5264 28.7701 97.7644 28.7686H99.2522C99.8615 28.7686 100.208 28.1006 99.8615 27.5997L93.5207 18.6568V18.5984L99.0238 10.5156C99.106 10.4069 99.1555 10.2776 99.1675 10.1425C99.1787 10.0073 99.1523 9.87167 99.0892 9.7509C99.027 9.63013 98.9319 9.52899 98.8137 9.45899C98.6963 9.38906 98.5614 9.35298 98.424 9.35498Z" fill="white"/>
</g>
<defs>
<clipPath id="clip0_1_3671">
<rect width="192.556" height="37.5164" fill="white" transform="translate(0 0.487305)"/>
</clipPath>
</defs>
</svg>
