<svg width="160" height="45" viewBox="0 0 160 45" fill="none" xmlns="http://www.w3.org/2000/svg">
<path d="M33.8612 0.531788C32.493 0.528486 30.965 0.687744 29.3075 1.10911C29.3075 1.10911 20.8088 3.21693 11.4417 11.9582C11.4417 11.9582 6.97527 16.4838 3.81154 22.3113C3.81154 22.3113 0.523747 28.3867 0.0274752 33.4703C0.0274752 33.4703 -0.468796 39.1738 2.75697 42.0875C2.75697 42.0875 6.479 45.4972 14.6054 44.8153C14.6054 44.8153 19.6922 44.1954 25.2133 40.7237C25.2133 40.7237 27.8807 38.9878 29.6177 37.3759C29.6177 37.3759 28.8112 40.2897 29.9899 42.3975C29.9899 42.3975 31.1065 44.3813 33.6499 44.8153C33.6499 44.8153 35.5109 45.1873 38.1783 44.1954C38.1783 44.1954 39.8533 43.4514 40.9699 42.8935C40.9699 42.8935 43.2651 41.6536 45.4984 39.9177C45.4984 39.9177 45.0641 41.6536 46.0567 43.1414C46.0567 43.1414 47.2353 44.8153 49.4065 45.0013C49.4065 45.0013 55.2377 45.4352 63.3641 35.4541L57.657 44.6293L62.8679 44.5673L67.3963 36.756C67.3963 36.756 72.1109 28.6967 73.1035 27.7048C73.1035 27.7048 75.5228 24.4811 79.1828 23.7371L81.6021 23.9231C81.6021 23.9231 82.5947 24.4191 82.5947 25.535L80.7957 25.225C80.7957 25.225 79.7411 25.349 79.1828 26.4649C79.1828 26.4649 78.6865 27.5188 78.9346 28.5727C78.9346 28.5727 79.2448 29.4406 80.0513 29.7506L80.6096 29.9366L82.4085 29.6886C82.4085 29.6886 85.5723 28.5107 89.9147 23.0552L88.9221 24.853L85.2621 31.1145L80.9818 38.6778C80.9818 38.6778 79.7411 41.1576 80.2994 42.6455C80.2994 42.6455 80.8577 44.0714 82.7187 44.4433L86.7509 44.1334C86.7509 44.1334 89.0462 43.4514 90.9072 41.8396L93.5747 39.6698C93.5747 39.6698 96.8004 36.942 99.716 33.7183L99.5299 33.9662C99.5299 33.9662 96.9865 38.6158 96.5523 40.1657C96.5523 40.1657 95.5597 43.4514 97.855 44.7533L100.46 45.0013C100.46 45.0013 102.632 44.6913 104.803 43.1414L108.339 40.1037C108.339 40.1037 111.378 37.252 112.991 35.2061C112.991 35.2061 112.185 37.066 111.999 38.4299C111.999 38.4299 111.378 42.7695 115.411 44.5053L119.195 44.8153C119.195 44.8153 120.683 44.6913 122.979 43.8854C122.979 43.8854 128.314 42.1495 135.82 35.2681C135.82 35.2681 139.604 31.7964 142.271 28.6967L132.842 44.5053H137.495L140.969 38.6778L145.435 31.4245C145.435 31.4245 147.978 27.3948 152.631 24.791C152.631 24.791 154.492 23.6751 155.919 23.4272C155.919 23.4272 157.408 23.1172 157.718 23.8611C157.718 23.8611 155.609 23.4272 155.112 25.597C155.112 25.597 154.616 27.7668 156.353 28.4487C156.353 28.4487 157.656 28.8827 158.71 28.1388C158.71 28.1388 159.641 27.4568 159.951 26.1549C159.951 26.1549 160.199 24.853 159.579 23.9231C159.579 23.9231 158.834 22.8072 157.097 22.6832C157.097 22.6832 155.174 22.6212 151.328 25.163C151.328 25.163 148.475 27.0229 147.296 28.2008L150.46 22.8072H145.745C145.745 22.8072 141.279 30.3706 133.4 36.88C133.4 36.88 125.708 43.1414 121.366 43.3274C121.366 43.3274 117.148 43.6374 116.713 40.4137C116.713 40.4137 116.465 38.4919 117.582 35.7641C117.582 35.7641 120.187 36.0121 123.661 34.8962C123.661 34.8962 126.949 33.8423 129.678 31.9824C129.678 31.9824 132.594 29.9986 133.649 27.8908C133.649 27.8908 134.889 25.535 133.462 23.5512C133.462 23.5512 130.857 21.0094 125.212 23.3652C125.212 23.3652 119.381 25.783 115.038 31.5485L113.798 33.4083L110.696 37.004L107.532 40.1657C107.532 40.1657 103.686 43.9474 101.763 42.8315C101.763 42.8315 101.019 42.3355 101.019 41.1576C101.019 41.1576 101.019 39.9797 101.887 38.5538L110.882 22.9312H106.85C106.85 22.9312 104.617 26.5889 102.011 30.0606C102.011 30.0606 96.9245 36.818 91.4035 40.7237C91.4035 40.7237 87.6194 43.6374 85.5102 42.6455C85.5102 42.6455 84.5797 42.2115 84.6418 41.0336C84.6418 41.0336 84.7038 39.7317 85.9445 37.9339L94.7533 22.9312L99.654 22.8692L100.274 22.2493H95.3116L100.584 12.8881L96.118 12.9501C96.118 12.9501 93.0163 18.2196 90.6591 21.3813C90.6591 21.3813 86.3167 27.0849 82.7187 28.6347C82.7187 28.6347 83.3391 27.8288 83.4011 26.5889L83.3391 25.597C83.3391 25.597 83.0909 24.2951 81.8502 23.6751L80.7336 23.3652L78.6245 23.5512C78.6245 23.5512 76.1431 24.1091 73.8479 26.0929L75.7709 22.8692H71.3045C71.3045 22.8692 67.2723 30.0606 61.9994 36.1981C61.9994 36.1981 55.1136 44.1334 51.3295 43.2034C51.3295 43.2034 50.2129 42.6455 50.1509 41.2816C50.1509 41.2816 50.1509 39.9177 51.3295 37.9959L60.3245 22.8072L55.858 22.8692L54.4312 25.349L53.5007 27.1468C53.5007 27.1468 53.6868 26.5889 53.5007 25.411C53.5007 25.411 53.1285 22.6212 50.4611 22.0633L48.3519 21.8773C48.3519 21.8773 43.017 21.8153 36.9377 27.1468C36.9377 27.1468 32.7814 30.8665 29.6177 36.508C29.6177 36.508 23.2902 42.3975 16.5905 43.6994C16.5905 43.6994 10.6353 44.9393 8.09188 42.2735C8.09188 42.2735 5.30036 39.4218 5.30036 34.4622C5.30036 34.4622 5.36239 28.5727 9.5807 20.5754C9.5807 20.5754 14.0471 14.004 16.7766 11.0282C16.7766 11.0282 23.7244 3.40291 30.9204 1.48108C30.9204 1.48108 36.8136 -0.0687841 40.1014 2.59698C40.1014 2.59698 42.8929 4.89078 43.1411 9.54038L44.7539 6.81262C44.7539 6.81262 46.8011 3.5889 48.6 1.72906C48.6 1.72906 46.9251 2.47299 44.878 2.72097C44.878 2.72097 42.3346 3.03095 41.0939 2.28701C41.0939 2.28701 38.3304 0.542577 33.8612 0.531788ZM49.011 22.4391C50.8285 22.4483 51.7638 23.3032 51.7638 23.3032C53.935 25.287 52.198 29.0067 52.198 29.0067C48.8482 35.9501 43.9475 40.1657 43.9475 40.1657L40.9699 42.2735C36.3173 44.5673 34.3322 42.9555 34.3322 42.9555C32.7194 41.5916 33.4017 38.4919 33.4017 38.4919C33.836 36.384 35.5729 33.3463 35.5729 33.3463L38.9228 28.4487C41.9624 25.101 45.4363 23.3652 45.4363 23.3652C46.865 22.6619 48.059 22.4343 49.011 22.4391ZM128.812 22.9855C128.874 22.9847 128.936 22.9874 128.996 22.9932C128.996 22.9932 129.989 23.1172 130.423 23.6132C130.423 23.6132 130.857 24.2331 130.733 25.473C130.733 25.473 130.423 28.7587 126.763 31.8584C126.763 31.8584 122.607 35.3921 117.768 35.2681L118.698 33.3463C118.698 33.3463 120.808 29.2547 123.909 26.0929C123.909 26.0929 126.878 23.0091 128.812 22.9855Z" fill="white"/>
<path d="M109.953 16.0493C109.953 16.0493 109.953 16.8552 110.574 17.4752C110.574 17.4752 111.132 18.0331 112 18.0331C112 18.0331 112.807 18.0331 113.365 17.4752C113.365 17.4752 113.923 16.8552 113.923 16.0493L113.365 14.6234C113.365 14.6234 112.745 14.0655 112 14.0655C112 14.0655 111.132 14.0655 110.574 14.6234C110.574 14.6234 109.953 15.1814 109.953 16.0493Z" fill="white"/>
</svg>
