<svg width="178" height="30" viewBox="0 0 178 30" fill="none" xmlns="http://www.w3.org/2000/svg">
<path d="M80.1126 15.4444V15.3776C80.1126 11.5993 77.2929 8.50166 73.5865 8.50166C69.7784 8.50166 67.1581 11.5993 67.1581 15.3057V15.3776C67.1581 19.1518 69.9489 22.2166 73.6533 22.2166C77.4604 22.2166 80.1126 19.1518 80.1126 15.4444ZM64.4711 15.4444V15.3776C64.4711 10.4098 68.3471 6.1914 73.6533 6.1914C78.9246 6.1914 82.7996 10.3419 82.7996 15.3057V15.3776C82.7996 20.3454 78.8917 24.5628 73.5865 24.5628C68.3142 24.5628 64.4711 20.4112 64.4711 15.4444ZM99.8015 14.5263V14.4565C99.8015 10.8509 96.6717 8.50367 93.3423 8.50367C90.0089 8.50367 87.2531 10.8159 87.2531 14.4245V14.4924C87.2531 18.0301 90.0807 20.4781 93.3423 20.4781C96.6717 20.4781 99.8015 18.0661 99.8015 14.5263ZM85.3819 27.2173L86.5728 25.1745C88.5796 26.6395 90.8238 27.4229 93.3423 27.4229C97.2162 27.4229 99.7317 25.2773 99.7317 21.1597V19.086C98.2027 21.1268 96.0612 22.7954 92.8336 22.7954C88.6145 22.7954 84.566 19.6289 84.566 14.5603V14.4924C84.566 9.35493 88.6485 6.1924 92.8346 6.1924C96.1321 6.1924 98.2735 7.82305 99.7018 9.72715V6.56365H102.319V21.0929C102.319 23.8143 101.501 25.89 100.075 27.3181C98.5109 28.8829 96.165 29.6653 93.3772 29.6653C90.4538 29.6653 87.7318 28.8509 85.3829 27.2173M105.971 6.56365H108.59V24.1536H105.971V6.56365ZM105.801 0.338407H108.793V3.22948H105.801V0.338407ZM63.9375 21.6717H52.5171V0.339411H49.8341V24.1546H66.0919C65.2559 23.4367 64.5294 22.6002 63.9355 21.6717M117.817 22.0798C116.047 22.0798 114.859 21.2964 114.859 19.1528V8.8779H120.067C120.597 8.02333 121.242 7.24508 121.982 6.56465H114.859V0.337402H112.243V19.4921C112.243 23.0678 114.384 24.4609 117.205 24.4609C118.683 24.4609 119.929 24.0877 121.087 23.2554C120.659 22.7585 120.274 22.2257 119.936 21.6627C119.263 21.9367 118.544 22.0783 117.817 22.0798Z" fill="#231F20"/>
<path d="M134.686 14.39C134.41 11.1905 132.576 8.40421 129.07 8.40421C126.012 8.40421 123.699 10.953 123.36 14.39H134.686ZM120.708 15.4098V15.342C120.708 10.2734 124.279 6.19173 129.139 6.19173C134.341 6.19173 137.336 10.3412 137.336 15.4787C137.336 15.819 137.336 16.0236 137.3 16.328H123.36C123.737 20.1411 126.422 22.2837 129.55 22.2837C131.963 22.2837 133.664 21.2978 135.092 19.7988L136.724 21.2629C134.956 23.2358 132.815 24.5621 129.482 24.5621C124.652 24.5621 120.708 20.8557 120.708 15.4108M139.149 15.4448V15.3779C139.149 10.4101 143.029 6.19173 148.161 6.19173C151.496 6.19173 153.571 7.58588 155.202 9.32033L153.466 11.1566C152.075 9.69456 150.507 8.502 148.127 8.502C144.556 8.502 141.838 11.5308 141.838 15.3061V15.3779C141.838 19.1861 144.626 22.2169 148.299 22.2169C150.542 22.2169 152.276 21.0932 153.67 19.5963L155.337 21.1601C153.571 23.133 151.461 24.5631 148.161 24.5631C143.03 24.5631 139.149 20.3767 139.149 15.4448ZM157.493 0.338739H160.112V9.62969C161.269 7.7226 163.104 6.19374 166.126 6.19374C170.38 6.19374 172.864 9.04989 172.864 13.2363V24.1569H170.245V13.883C170.245 10.6147 168.473 8.57387 165.382 8.57387C162.354 8.57387 160.112 10.7853 160.112 14.0826V24.1569H157.493V0.338739ZM175.824 8.28244C176.054 8.28244 176.187 8.16171 176.187 7.99306C176.187 7.80046 176.055 7.70164 175.824 7.70164H175.392V8.28345H175.824V8.28244ZM175.051 7.39827H175.854C176.247 7.39827 176.537 7.58988 176.537 7.96212C176.537 8.25152 176.365 8.43316 176.124 8.50501L176.597 9.17664H176.187L175.763 8.56589H175.392V9.17664H175.051V7.39827ZM177.28 8.32338V8.31141C177.283 8.10707 177.245 7.90425 177.168 7.71482C177.092 7.52539 176.978 7.35317 176.834 7.2082C176.69 7.06324 176.519 6.94843 176.33 6.87055C176.141 6.79266 175.939 6.75326 175.734 6.7546C175.53 6.75525 175.327 6.79639 175.138 6.87569C174.949 6.95499 174.778 7.07087 174.634 7.21667C174.49 7.36246 174.376 7.53531 174.299 7.72524C174.222 7.91517 174.184 8.11844 174.185 8.32338V8.33236C174.185 9.1896 174.849 9.89215 175.735 9.89215C176.609 9.89215 177.28 9.17663 177.28 8.32338ZM173.985 8.33236V8.32237C173.985 7.36933 174.759 6.56499 175.735 6.56499C176.718 6.56499 177.481 7.36036 177.481 8.31141V8.32338C177.482 8.788 177.298 9.234 176.971 9.56375C176.644 9.89351 176.2 10.0801 175.735 10.0828C174.748 10.0828 173.985 9.2904 173.985 8.33236ZM31.539 16.295C32.9933 16.9497 34.9542 16.9736 36.3496 16.3948C37.8457 15.822 38.4282 15.0426 37.4587 14.6185C36.3765 14.1893 33.107 14.0187 30.761 14.3111C28.9677 14.6644 29.6968 15.5955 31.539 16.295ZM28.0889 25.4992C29.7227 27.509 32.2302 29.4201 33.5099 29.5509C34.4894 29.3892 33.9687 27.7685 32.717 26.2975C31.5919 24.9583 29.6938 23.7577 28.2824 23.3715C26.8422 22.9015 26.6048 23.6709 28.0889 25.4992ZM28.075 6.44423C30.9575 4.91936 33.07 2.87654 32.7928 1.87858C32.5195 0.878631 31.2807 0.474468 30.0259 0.976437C28.7722 1.47841 26.6596 3.52121 25.3022 5.53908C23.9497 7.56093 25.1905 7.96611 28.075 6.44423ZM16.7374 2.4095C16.8631 2.22987 17.1323 1.78877 17.0176 1.3377C16.876 0.770859 16.105 0.475475 15.4557 0.392643C14.3486 0.248939 13.4479 0.422575 12.6699 0.589232C10.6182 1.03033 9.01239 1.81471 7.89229 2.54521C6.96521 3.16006 6.10004 3.86361 5.30899 4.64592C2.37758 7.54498 -0.510931 12.3621 0.35682 17.9886C0.856525 21.3517 2.62093 23.8296 4.13302 25.6698C6.11787 27.9701 9.26973 30.0868 12.0465 29.5948C13.3272 29.3443 14.3156 28.2915 14.7834 27.4322C16.5728 24.118 13.6264 19.8108 12.7726 18.1013C11.6695 16.0176 11.1598 13.8969 12.1104 10.6456C12.9991 7.61183 15.7868 3.76572 16.7374 2.4095Z" fill="#231F20"/>
<path d="M22.116 17.2589C20.597 17.2589 19.6045 16.732 19.6045 15.723C19.6045 14.8847 21.1416 12.8928 22.6616 12.8928C23.7827 12.8928 24.8849 14.2271 24.8849 15.0254C24.8849 16.0464 23.7827 17.2589 22.116 17.2589ZM22.8242 19.6649C22.3584 20.2238 21.6093 20.6429 21.0129 20.6429C20.211 20.6429 19.6135 20.1948 19.4111 19.5492C19.3572 19.3895 19.3402 19.2169 19.3293 19.0342C19.3213 18.8406 19.3871 18.9255 19.9606 19.138C20.3516 19.2857 20.8423 19.4224 21.35 19.4224C21.5535 19.4224 21.751 19.3995 21.9385 19.3675C22.2656 19.3057 23.289 19.1131 22.8242 19.6649ZM18.0107 15.6412C17.8002 16.5054 17.6307 16.1302 17.5329 15.8837C17.3833 15.5054 17.3265 15.1053 17.3265 14.749C17.3265 13.4826 18.2909 12.4088 20.1062 12.4088C20.5232 12.4088 20.6837 12.5386 20.2529 12.7421C20.1082 12.812 19.9456 12.9168 19.808 13.0016C18.8924 13.5734 18.286 14.5205 18.0107 15.6412ZM28.2851 14.0285C28.1305 11.6943 24.828 10.0467 20.6598 10.1564C17.3693 10.2462 13.6719 12.2451 13.6749 14.749C13.6789 17.4944 15.7994 18.6041 16.6263 18.9314C16.8268 19.0133 16.8975 18.9873 17.0222 19.3546C17.2626 20.0531 17.9399 21.7566 20.1591 21.7516C23.1593 21.7447 28.5145 17.4645 28.2851 14.0285Z" fill="#231F20"/>
</svg>
